<?xml version="1.0" encoding="UTF-8" standalone="no"?>
<!-- Created with matplotlib (http://matplotlib.org/) -->

<svg
   height="50.25pt"
   version="1.1"
   viewBox="0 0 67 50.25"
   width="67pt"
   id="svg6520"
   sodipodi:docname="capillary_linear.svg"
   inkscape:version="1.1.2 (0a00cf5339, 2022-02-04)"
   xmlns:inkscape="http://www.inkscape.org/namespaces/inkscape"
   xmlns:sodipodi="http://sodipodi.sourceforge.net/DTD/sodipodi-0.dtd"
   xmlns:xlink="http://www.w3.org/1999/xlink"
   xmlns="http://www.w3.org/2000/svg"
   xmlns:svg="http://www.w3.org/2000/svg">
  <sodipodi:namedview
     id="namedview6522"
     pagecolor="#ffffff"
     bordercolor="#666666"
     borderopacity="1.0"
     inkscape:pageshadow="2"
     inkscape:pageopacity="0.0"
     inkscape:pagecheckerboard="0"
     inkscape:document-units="pt"
     showgrid="false"
     fit-margin-top="0"
     fit-margin-left="0"
     fit-margin-right="0"
     fit-margin-bottom="0"
     inkscape:zoom="1.6190217"
     inkscape:cx="306.66667"
     inkscape:cy="230.07721"
     inkscape:window-width="1850"
     inkscape:window-height="1136"
     inkscape:window-x="0"
     inkscape:window-y="0"
     inkscape:window-maximized="1"
     inkscape:current-layer="svg6520" />
  <defs
     id="defs6253">
    <style
       type="text/css"
       id="style6251">
*{stroke-linecap:butt;stroke-linejoin:round;}
  </style>
  </defs>
  <g
     id="figure_1"
     transform="scale(0.14539931)">
    <g
       id="patch_1">
      <path
         d="M 0,345.6 H 460.8 V 0 H 0 Z"
         style="fill:#ffffff"
         id="path6255" />
    </g>
    <g
       id="axes_1">
      <g
         id="patch_2">
        <path
           d="M 57.6,307.584 H 414.72 V 41.472 H 57.6 Z"
           style="fill:#ffffff"
           id="path6258" />
      </g>
      <g
         id="matplotlib.axis_1">
        <g
           id="xtick_1">
          <g
             id="line2d_1">
            <defs
               id="defs6262">
              <path
                 d="M 0,0 V 3.5"
                 id="mef468eaaae"
                 style="stroke:#000000;stroke-width:0.8" />
            </defs>
            <g
               id="g6266">
              <use
                 style="stroke:#000000;stroke-width:0.8"
                 x="73.832726"
                 xlink:href="#mef468eaaae"
                 y="307.58401"
                 id="use6264"
                 width="100%"
                 height="100%" />
            </g>
          </g>
          <g
             id="text_1">
            <!-- 0.0 -->
            <defs
               id="defs6271">
              <path
                 d="m 31.78125,66.40625 q -7.609375,0 -11.453125,-7.5 Q 16.5,51.421875 16.5,36.375 q 0,-14.984375 3.828125,-22.484375 3.84375,-7.5 11.453125,-7.5 7.671875,0 11.5,7.5 3.84375,7.5 3.84375,22.484375 0,15.046875 -3.84375,22.53125 -3.828125,7.5 -11.5,7.5 m 0,7.8125 q 12.265625,0 18.734375,-9.703125 6.46875,-9.6875 6.46875,-28.140625 0,-18.40625 -6.46875,-28.109375 -6.46875,-9.6875 -18.734375,-9.6875 -12.25,0 -18.71875,9.6875 Q 6.59375,17.96875 6.59375,36.375 q 0,18.453125 6.46875,28.140625 6.46875,9.703125 18.71875,9.703125"
                 id="DejaVuSans-30" />
              <path
                 d="M 10.6875,12.40625 H 21 V 0 H 10.6875 Z"
                 id="DejaVuSans-2e" />
            </defs>
            <g
               transform="matrix(0.1,0,0,-0.1,65.881165,322.18244)"
               id="g6279">
              <use
                 xlink:href="#DejaVuSans-30"
                 id="use6273"
                 x="0"
                 y="0"
                 width="100%"
                 height="100%" />
              <use
                 x="63.623047"
                 xlink:href="#DejaVuSans-2e"
                 id="use6275"
                 y="0"
                 width="100%"
                 height="100%" />
              <use
                 x="95.410156"
                 xlink:href="#DejaVuSans-30"
                 id="use6277"
                 y="0"
                 width="100%"
                 height="100%" />
            </g>
          </g>
        </g>
        <g
           id="xtick_2">
          <g
             id="line2d_2">
            <g
               id="g6285">
              <use
                 style="stroke:#000000;stroke-width:0.8"
                 x="138.76364"
                 xlink:href="#mef468eaaae"
                 y="307.58401"
                 id="use6283"
                 width="100%"
                 height="100%" />
            </g>
          </g>
          <g
             id="text_2">
            <!-- 0.2 -->
            <defs
               id="defs6289">
              <path
                 d="M 19.1875,8.296875 H 53.609375 V 0 H 7.328125 v 8.296875 q 5.609375,5.8125 15.296875,15.59375 9.703125,9.796875 12.1875,12.640625 4.734375,5.3125 6.609375,9 1.890625,3.6875 1.890625,7.25 0,5.8125 -4.078125,9.46875 -4.078125,3.671875 -10.625,3.671875 -4.640625,0 -9.796875,-1.609375 -5.140625,-1.609375 -11,-4.890625 v 9.96875 Q 13.765625,71.78125 18.9375,73 q 5.1875,1.21875 9.484375,1.21875 11.328125,0 18.0625,-5.671875 6.734375,-5.65625 6.734375,-15.125 0,-4.5 -1.6875,-8.53125 Q 49.859375,40.875 45.40625,35.40625 44.1875,33.984375 37.640625,27.21875 31.109375,20.453125 19.1875,8.296875"
                 id="DejaVuSans-32" />
            </defs>
            <g
               transform="matrix(0.1,0,0,-0.1,130.81207,322.18244)"
               id="g6297">
              <use
                 xlink:href="#DejaVuSans-30"
                 id="use6291"
                 x="0"
                 y="0"
                 width="100%"
                 height="100%" />
              <use
                 x="63.623047"
                 xlink:href="#DejaVuSans-2e"
                 id="use6293"
                 y="0"
                 width="100%"
                 height="100%" />
              <use
                 x="95.410156"
                 xlink:href="#DejaVuSans-32"
                 id="use6295"
                 y="0"
                 width="100%"
                 height="100%" />
            </g>
          </g>
        </g>
        <g
           id="xtick_3">
          <g
             id="line2d_3">
            <g
               id="g6303">
              <use
                 style="stroke:#000000;stroke-width:0.8"
                 x="203.69455"
                 xlink:href="#mef468eaaae"
                 y="307.58401"
                 id="use6301"
                 width="100%"
                 height="100%" />
            </g>
          </g>
          <g
             id="text_3">
            <!-- 0.4 -->
            <defs
               id="defs6307">
              <path
                 d="M 37.796875,64.3125 12.890625,25.390625 h 24.90625 z m -2.59375,8.59375 h 12.40625 V 25.390625 h 10.40625 V 17.1875 H 47.609375 V 0 h -9.8125 V 17.1875 H 4.890625 v 9.515625 z"
                 id="DejaVuSans-34" />
            </defs>
            <g
               transform="matrix(0.1,0,0,-0.1,195.74298,322.18244)"
               id="g6315">
              <use
                 xlink:href="#DejaVuSans-30"
                 id="use6309"
                 x="0"
                 y="0"
                 width="100%"
                 height="100%" />
              <use
                 x="63.623047"
                 xlink:href="#DejaVuSans-2e"
                 id="use6311"
                 y="0"
                 width="100%"
                 height="100%" />
              <use
                 x="95.410156"
                 xlink:href="#DejaVuSans-34"
                 id="use6313"
                 y="0"
                 width="100%"
                 height="100%" />
            </g>
          </g>
        </g>
        <g
           id="xtick_4">
          <g
             id="line2d_4">
            <g
               id="g6321">
              <use
                 style="stroke:#000000;stroke-width:0.8"
                 x="268.62546"
                 xlink:href="#mef468eaaae"
                 y="307.58401"
                 id="use6319"
                 width="100%"
                 height="100%" />
            </g>
          </g>
          <g
             id="text_4">
            <!-- 0.6 -->
            <defs
               id="defs6325">
              <path
                 d="m 33.015625,40.375 q -6.640625,0 -10.53125,-4.546875 -3.875,-4.53125 -3.875,-12.4375 0,-7.859375 3.875,-12.4375 3.890625,-4.5625 10.53125,-4.5625 6.640625,0 10.515625,4.5625 3.875,4.578125 3.875,12.4375 0,7.90625 -3.875,12.4375 Q 39.65625,40.375 33.015625,40.375 M 52.59375,71.296875 V 62.3125 q -3.71875,1.75 -7.5,2.671875 -3.78125,0.9375 -7.5,0.9375 -9.765625,0 -14.921875,-6.59375 -5.140625,-6.59375 -5.875,-19.921875 2.875,4.25 7.21875,6.515625 4.359375,2.265625 9.578125,2.265625 10.984375,0 17.359375,-6.671875 6.375,-6.65625 6.375,-18.125 0,-11.234375 -6.640625,-18.03125 -6.640625,-6.78125 -17.671875,-6.78125 -12.65625,0 -19.34375,9.6875 -6.6875,9.703125 -6.6875,28.109375 0,17.28125 8.203125,27.5625 8.203125,10.28125 22.015625,10.28125 3.71875,0 7.5,-0.734375 3.78125,-0.734375 7.890625,-2.1875"
                 id="DejaVuSans-36" />
            </defs>
            <g
               transform="matrix(0.1,0,0,-0.1,260.67389,322.18244)"
               id="g6333">
              <use
                 xlink:href="#DejaVuSans-30"
                 id="use6327"
                 x="0"
                 y="0"
                 width="100%"
                 height="100%" />
              <use
                 x="63.623047"
                 xlink:href="#DejaVuSans-2e"
                 id="use6329"
                 y="0"
                 width="100%"
                 height="100%" />
              <use
                 x="95.410156"
                 xlink:href="#DejaVuSans-36"
                 id="use6331"
                 y="0"
                 width="100%"
                 height="100%" />
            </g>
          </g>
        </g>
        <g
           id="xtick_5">
          <g
             id="line2d_5">
            <g
               id="g6339">
              <use
                 style="stroke:#000000;stroke-width:0.8"
                 x="333.55637"
                 xlink:href="#mef468eaaae"
                 y="307.58401"
                 id="use6337"
                 width="100%"
                 height="100%" />
            </g>
          </g>
          <g
             id="text_5">
            <!-- 0.8 -->
            <defs
               id="defs6343">
              <path
                 d="m 31.78125,34.625 q -7.03125,0 -11.0625,-3.765625 -4.015625,-3.765625 -4.015625,-10.34375 0,-6.59375 4.015625,-10.359375 4.03125,-3.765625 11.0625,-3.765625 7.03125,0 11.078125,3.78125 4.0625,3.796875 4.0625,10.34375 0,6.578125 -4.03125,10.34375 Q 38.875,34.625 31.78125,34.625 m -9.859375,4.1875 Q 15.578125,40.375 12.03125,44.71875 8.5,49.078125 8.5,55.328125 q 0,8.734375 6.21875,13.8125 6.234375,5.078125 17.0625,5.078125 10.890625,0 17.09375,-5.078125 6.203125,-5.078125 6.203125,-13.8125 0,-6.25 -3.546875,-10.609375 Q 48,40.375 41.703125,38.8125 q 7.125,-1.65625 11.09375,-6.5 3.984375,-4.828125 3.984375,-11.796875 0,-10.609375 -6.46875,-16.28125 -6.46875,-5.65625 -18.53125,-5.65625 -12.046875,0 -18.53125,5.65625 -6.46875,5.671875 -6.46875,16.28125 0,6.96875 4,11.796875 4.015625,4.84375 11.140625,6.5 M 18.3125,54.390625 q 0,-5.65625 3.53125,-8.828125 3.546875,-3.171875 9.9375,-3.171875 6.359375,0 9.9375,3.171875 3.59375,3.171875 3.59375,8.828125 0,5.671875 -3.59375,8.84375 -3.578125,3.171875 -9.9375,3.171875 -6.390625,0 -9.9375,-3.171875 Q 18.3125,60.0625 18.3125,54.390625"
                 id="DejaVuSans-38" />
            </defs>
            <g
               transform="matrix(0.1,0,0,-0.1,325.6048,322.18244)"
               id="g6351">
              <use
                 xlink:href="#DejaVuSans-30"
                 id="use6345"
                 x="0"
                 y="0"
                 width="100%"
                 height="100%" />
              <use
                 x="63.623047"
                 xlink:href="#DejaVuSans-2e"
                 id="use6347"
                 y="0"
                 width="100%"
                 height="100%" />
              <use
                 x="95.410156"
                 xlink:href="#DejaVuSans-38"
                 id="use6349"
                 y="0"
                 width="100%"
                 height="100%" />
            </g>
          </g>
        </g>
        <g
           id="xtick_6">
          <g
             id="line2d_6">
            <g
               id="g6357">
              <use
                 style="stroke:#000000;stroke-width:0.8"
                 x="398.48727"
                 xlink:href="#mef468eaaae"
                 y="307.58401"
                 id="use6355"
                 width="100%"
                 height="100%" />
            </g>
          </g>
          <g
             id="text_6">
            <!-- 1.0 -->
            <defs
               id="defs6361">
              <path
                 d="m 12.40625,8.296875 h 16.109375 v 55.625 L 10.984375,60.40625 v 8.984375 l 17.4375,3.515625 H 38.28125 V 8.296875 H 54.390625 V 0 H 12.40625 Z"
                 id="DejaVuSans-31" />
            </defs>
            <g
               transform="matrix(0.1,0,0,-0.1,390.53571,322.18244)"
               id="g6369">
              <use
                 xlink:href="#DejaVuSans-31"
                 id="use6363"
                 x="0"
                 y="0"
                 width="100%"
                 height="100%" />
              <use
                 x="63.623047"
                 xlink:href="#DejaVuSans-2e"
                 id="use6365"
                 y="0"
                 width="100%"
                 height="100%" />
              <use
                 x="95.410156"
                 xlink:href="#DejaVuSans-30"
                 id="use6367"
                 y="0"
                 width="100%"
                 height="100%" />
            </g>
          </g>
        </g>
        <g
           id="text_7">
          <!-- $s_1$ -->
          <defs
             id="defs6374">
            <path
               d="m 50,53.078125 -1.703125,-8.5 Q 44.734375,46.53125 40.765625,47.5 36.8125,48.484375 32.625,48.484375 q -7.09375,0 -11.171875,-2.421875 -4.0625,-2.40625 -4.0625,-6.5625 0,-4.828125 9.46875,-7.421875 0.734375,-0.1875 1.078125,-0.296875 l 2.875,-0.875 q 8.984375,-2.484375 11.984375,-5.21875 3,-2.734375 3,-7.46875 0,-8.703125 -6.90625,-14.171875 -6.90625,-5.46875 -18.09375,-5.46875 -4.34375,0 -9.125,0.84375 Q 6.890625,0.25 1.125,2 l 1.75,9.28125 q 4.9375,-2.546875 9.71875,-3.859375 4.796875,-1.3125 9.1875,-1.3125 6.59375,0 10.71875,2.828125 4.125,2.828125 4.125,7.171875 0,4.6875 -10.84375,7.578125 l -0.921875,0.234375 -3.078125,0.78125 Q 14.9375,26.515625 11.765625,29.46875 8.59375,32.421875 8.59375,37.015625 8.59375,45.75 15.15625,50.875 21.734375,56 33.015625,56 q 4.4375,0 8.65625,-0.734375 Q 45.90625,54.546875 50,53.078125"
               id="DejaVuSans-Oblique-73" />
          </defs>
          <g
             transform="matrix(0.1,0,0,-0.1,231.16,335.86056)"
             id="g6380">
            <use
               xlink:href="#DejaVuSans-Oblique-73"
               id="use6376"
               x="0"
               y="0"
               width="100%"
               height="100%" />
            <use
               transform="matrix(0.7,0,0,0.7,52.099609,-16.40625)"
               xlink:href="#DejaVuSans-31"
               id="use6378"
               x="0"
               y="0"
               width="100%"
               height="100%" />
          </g>
        </g>
      </g>
      <g
         id="matplotlib.axis_2">
        <g
           id="ytick_1">
          <g
             id="line2d_7">
            <defs
               id="defs6385">
              <path
                 d="M 0,0 H -3.5"
                 id="m80140217b3"
                 style="stroke:#000000;stroke-width:0.8" />
            </defs>
            <g
               id="g6389">
              <use
                 style="stroke:#000000;stroke-width:0.8"
                 x="57.599998"
                 xlink:href="#m80140217b3"
                 y="295.48801"
                 id="use6387"
                 width="100%"
                 height="100%" />
            </g>
          </g>
          <g
             id="text_8">
            <!-- −10 -->
            <defs
               id="defs6393">
              <path
                 d="M 10.59375,35.5 H 73.1875 V 27.203125 H 10.59375 Z"
                 id="DejaVuSans-2212" />
            </defs>
            <g
               transform="matrix(0.1,0,0,-0.1,29.495313,299.28722)"
               id="g6401">
              <use
                 xlink:href="#DejaVuSans-2212"
                 id="use6395"
                 x="0"
                 y="0"
                 width="100%"
                 height="100%" />
              <use
                 x="83.789062"
                 xlink:href="#DejaVuSans-31"
                 id="use6397"
                 y="0"
                 width="100%"
                 height="100%" />
              <use
                 x="147.41211"
                 xlink:href="#DejaVuSans-30"
                 id="use6399"
                 y="0"
                 width="100%"
                 height="100%" />
            </g>
          </g>
        </g>
        <g
           id="ytick_2">
          <g
             id="line2d_8">
            <g
               id="g6407">
              <use
                 style="stroke:#000000;stroke-width:0.8"
                 x="57.599998"
                 xlink:href="#m80140217b3"
                 y="247.104"
                 id="use6405"
                 width="100%"
                 height="100%" />
            </g>
          </g>
          <g
             id="text_9">
            <!-- −8 -->
            <g
               transform="matrix(0.1,0,0,-0.1,35.857813,250.90322)"
               id="g6414">
              <use
                 xlink:href="#DejaVuSans-2212"
                 id="use6410"
                 x="0"
                 y="0"
                 width="100%"
                 height="100%" />
              <use
                 x="83.789062"
                 xlink:href="#DejaVuSans-38"
                 id="use6412"
                 y="0"
                 width="100%"
                 height="100%" />
            </g>
          </g>
        </g>
        <g
           id="ytick_3">
          <g
             id="line2d_9">
            <g
               id="g6420">
              <use
                 style="stroke:#000000;stroke-width:0.8"
                 x="57.599998"
                 xlink:href="#m80140217b3"
                 y="198.72"
                 id="use6418"
                 width="100%"
                 height="100%" />
            </g>
          </g>
          <g
             id="text_10">
            <!-- −6 -->
            <g
               transform="matrix(0.1,0,0,-0.1,35.857813,202.51922)"
               id="g6427">
              <use
                 xlink:href="#DejaVuSans-2212"
                 id="use6423"
                 x="0"
                 y="0"
                 width="100%"
                 height="100%" />
              <use
                 x="83.789062"
                 xlink:href="#DejaVuSans-36"
                 id="use6425"
                 y="0"
                 width="100%"
                 height="100%" />
            </g>
          </g>
        </g>
        <g
           id="ytick_4">
          <g
             id="line2d_10">
            <g
               id="g6433">
              <use
                 style="stroke:#000000;stroke-width:0.8"
                 x="57.599998"
                 xlink:href="#m80140217b3"
                 y="150.336"
                 id="use6431"
                 width="100%"
                 height="100%" />
            </g>
          </g>
          <g
             id="text_11">
            <!-- −4 -->
            <g
               transform="matrix(0.1,0,0,-0.1,35.857813,154.13522)"
               id="g6440">
              <use
                 xlink:href="#DejaVuSans-2212"
                 id="use6436"
                 x="0"
                 y="0"
                 width="100%"
                 height="100%" />
              <use
                 x="83.789062"
                 xlink:href="#DejaVuSans-34"
                 id="use6438"
                 y="0"
                 width="100%"
                 height="100%" />
            </g>
          </g>
        </g>
        <g
           id="ytick_5">
          <g
             id="line2d_11">
            <g
               id="g6446">
              <use
                 style="stroke:#000000;stroke-width:0.8"
                 x="57.599998"
                 xlink:href="#m80140217b3"
                 y="101.952"
                 id="use6444"
                 width="100%"
                 height="100%" />
            </g>
          </g>
          <g
             id="text_12">
            <!-- −2 -->
            <g
               transform="matrix(0.1,0,0,-0.1,35.857813,105.75122)"
               id="g6453">
              <use
                 xlink:href="#DejaVuSans-2212"
                 id="use6449"
                 x="0"
                 y="0"
                 width="100%"
                 height="100%" />
              <use
                 x="83.789062"
                 xlink:href="#DejaVuSans-32"
                 id="use6451"
                 y="0"
                 width="100%"
                 height="100%" />
            </g>
          </g>
        </g>
        <g
           id="ytick_6">
          <g
             id="line2d_12">
            <g
               id="g6459">
              <use
                 style="stroke:#000000;stroke-width:0.8"
                 x="57.599998"
                 xlink:href="#m80140217b3"
                 y="53.568001"
                 id="use6457"
                 width="100%"
                 height="100%" />
            </g>
          </g>
          <g
             id="text_13">
            <!-- 0 -->
            <g
               transform="matrix(0.1,0,0,-0.1,44.2375,57.367219)"
               id="g6464">
              <use
                 xlink:href="#DejaVuSans-30"
                 id="use6462"
                 x="0"
                 y="0"
                 width="100%"
                 height="100%" />
            </g>
          </g>
        </g>
        <g
           id="text_14">
          <!-- $P_c$ (kPa) -->
          <defs
             id="defs6476">
            <path
               d="m 16.890625,72.90625 h 22.8125 q 9.953125,0 15.171875,-4.640625 5.234375,-4.640625 5.234375,-13.578125 0,-12.015625 -7.71875,-18.703125 -7.71875,-6.6875 -21.671875,-6.6875 H 18.3125 L 12.59375,0 H 2.6875 Z m 8.3125,-8.109375 -5.28125,-27.390625 h 12.40625 q 8.390625,0 12.875,4.296875 4.5,4.296875 4.5,12.296875 0,5.125 -3.046875,7.953125 -3.046875,2.84375 -8.5625,2.84375 z"
               id="DejaVuSans-Oblique-50" />
            <path
               d="M 53.609375,52.59375 51.8125,43.703125 q -3.234375,2.34375 -6.875,3.515625 -3.625,1.171875 -7.53125,1.171875 -4.296875,0 -8.1875,-1.515625 -3.875,-1.515625 -6.515625,-4.296875 -4.203125,-4.25 -6.5,-9.96875 -2.28125,-5.703125 -2.28125,-11.8125 0,-7.375 3.6875,-10.984375 3.6875,-3.609375 11.203125,-3.609375 3.703125,0 7.875,1.125 4.1875,1.125 8.71875,3.359375 l -1.703125,-8.875 q -3.90625,-1.609375 -8.03125,-2.421875 -4.125,-0.8125 -8.46875,-0.8125 -10.890625,0 -16.75,5.4375 -5.859375,5.453125 -5.859375,15.5625 0,8.5 3.046875,15.65625 3.046875,7.15625 9.0625,12.859375 Q 20.796875,52 26.3125,54 q 5.53125,2 12.0625,2 3.8125,0 7.5625,-0.859375 3.765625,-0.84375 7.671875,-2.546875"
               id="DejaVuSans-Oblique-63" />
            <path
               id="DejaVuSans-20"
               d="" />
            <path
               d="M 31,75.875 Q 24.46875,64.65625 21.28125,53.65625 18.109375,42.671875 18.109375,31.390625 18.109375,20.125 21.3125,9.0625 24.515625,-2 31,-13.1875 H 23.1875 Q 15.875,-1.703125 12.234375,9.375 8.59375,20.453125 8.59375,31.390625 q 0,10.890625 3.609375,21.921875 3.625,11.046875 10.984375,22.5625 z"
               id="DejaVuSans-28" />
            <path
               d="m 9.078125,75.984375 h 9.03125 v -44.875 l 26.8125,23.578125 h 11.46875 l -29,-25.578125 L 57.625,0 H 45.90625 L 18.109375,26.703125 V 0 h -9.03125 z"
               id="DejaVuSans-6b" />
            <path
               d="M 19.671875,64.796875 V 37.40625 h 12.40625 q 6.890625,0 10.640625,3.5625 3.765625,3.5625 3.765625,10.15625 0,6.546875 -3.765625,10.109375 -3.75,3.5625 -10.640625,3.5625 z M 9.8125,72.90625 h 22.265625 q 12.265625,0 18.53125,-5.546875 6.28125,-5.546875 6.28125,-16.234375 0,-10.796875 -6.28125,-16.3125 -6.265625,-5.515625 -18.53125,-5.515625 H 19.671875 V 0 H 9.8125 Z"
               id="DejaVuSans-50" />
            <path
               d="m 34.28125,27.484375 q -10.890625,0 -15.09375,-2.484375 -4.203125,-2.484375 -4.203125,-8.5 0,-4.78125 3.15625,-7.59375 3.15625,-2.796875 8.5625,-2.796875 7.484375,0 12,5.296875 4.515625,5.296875 4.515625,14.078125 v 2 z m 17.921875,3.71875 V 0 H 43.21875 v 8.296875 q -3.078125,-4.96875 -7.671875,-7.34375 -4.59375,-2.375 -11.234375,-2.375 -8.390625,0 -13.359375,4.71875 Q 6,8.015625 6,15.921875 q 0,9.21875 6.171875,13.90625 6.1875,4.6875 18.4375,4.6875 H 43.21875 v 0.890625 q 0,6.203125 -4.078125,9.59375 -4.078125,3.390625 -11.453125,3.390625 -4.6875,0 -9.140625,-1.125 -4.4375,-1.125 -8.53125,-3.375 v 8.3125 q 4.921875,1.90625 9.5625,2.84375 Q 24.21875,56 28.609375,56 q 11.875,0 17.734375,-6.15625 5.859375,-6.140625 5.859375,-18.640625"
               id="DejaVuSans-61" />
            <path
               d="m 8.015625,75.875 h 7.8125 q 7.3125,-11.515625 10.953125,-22.5625 3.640625,-11.03125 3.640625,-21.921875 0,-10.9375 -3.640625,-22.015625 -3.640625,-11.078125 -10.953125,-22.5625 h -7.8125 Q 14.5,-2 17.703125,9.0625 20.90625,20.125 20.90625,31.390625 q 0,11.28125 -3.203125,22.265625 -3.203125,11 -9.6875,22.21875"
               id="DejaVuSans-29" />
          </defs>
          <g
             transform="matrix(0,-0.1,-0.1,0,23.415625,194.078)"
             id="g6494">
            <use
               transform="translate(0,0.015625)"
               xlink:href="#DejaVuSans-Oblique-50"
               id="use6478"
               x="0"
               y="0"
               width="100%"
               height="100%" />
            <use
               transform="matrix(0.7,0,0,0.7,60.302734,-16.390625)"
               xlink:href="#DejaVuSans-Oblique-63"
               id="use6480"
               x="0"
               y="0"
               width="100%"
               height="100%" />
            <use
               transform="translate(101.52344,0.015625)"
               xlink:href="#DejaVuSans-20"
               id="use6482"
               x="0"
               y="0"
               width="100%"
               height="100%" />
            <use
               transform="translate(133.31055,0.015625)"
               xlink:href="#DejaVuSans-28"
               id="use6484"
               x="0"
               y="0"
               width="100%"
               height="100%" />
            <use
               transform="translate(172.32422,0.015625)"
               xlink:href="#DejaVuSans-6b"
               id="use6486"
               x="0"
               y="0"
               width="100%"
               height="100%" />
            <use
               transform="translate(230.23437,0.015625)"
               xlink:href="#DejaVuSans-50"
               id="use6488"
               x="0"
               y="0"
               width="100%"
               height="100%" />
            <use
               transform="translate(290.53711,0.015625)"
               xlink:href="#DejaVuSans-61"
               id="use6490"
               x="0"
               y="0"
               width="100%"
               height="100%" />
            <use
               transform="translate(351.81641,0.015625)"
               xlink:href="#DejaVuSans-29"
               id="use6492"
               x="0"
               y="0"
               width="100%"
               height="100%" />
          </g>
        </g>
      </g>
      <g
         id="line2d_13">
        <path
           clip-path="url(#pbdeb704c2a)"
           d="M 73.832727,295.488 H 106.29818 L 366.02182,53.568 h 32.46545"
           style="fill:none;stroke:#1f77b4;stroke-width:1.5;stroke-linecap:square"
           id="path6498" />
      </g>
      <g
         id="patch_3">
        <path
           d="M 57.6,307.584 V 41.472"
           style="fill:none;stroke:#000000;stroke-width:0.8;stroke-linecap:square;stroke-linejoin:miter"
           id="path6501" />
      </g>
      <g
         id="patch_4">
        <path
           d="M 414.72,307.584 V 41.472"
           style="fill:none;stroke:#000000;stroke-width:0.8;stroke-linecap:square;stroke-linejoin:miter"
           id="path6504" />
      </g>
      <g
         id="patch_5">
        <path
           d="M 57.6,307.584 H 414.72"
           style="fill:none;stroke:#000000;stroke-width:0.8;stroke-linecap:square;stroke-linejoin:miter"
           id="path6507" />
      </g>
      <g
         id="patch_6">
        <path
           d="M 57.6,41.472 H 414.72"
           style="fill:none;stroke:#000000;stroke-width:0.8;stroke-linecap:square;stroke-linejoin:miter"
           id="path6510" />
      </g>
    </g>
  </g>
  <defs
     id="defs6518">
    <clipPath
       id="pbdeb704c2a">
      <rect
         height="266.112"
         width="357.12"
         x="57.599998"
         y="41.472"
         id="rect6515" />
    </clipPath>
  </defs>
</svg>
