<?xml version="1.0" encoding="utf-8" standalone="no"?>
<!DOCTYPE svg PUBLIC "-//W3C//DTD SVG 1.1//EN"
  "http://www.w3.org/Graphics/SVG/1.1/DTD/svg11.dtd">
<svg xmlns:xlink="http://www.w3.org/1999/xlink" width="398.509375pt" height="298.035469pt" viewBox="0 0 398.509375 298.035469" xmlns="http://www.w3.org/2000/svg" version="1.1">
 <metadata>
  <rdf:RDF xmlns:dc="http://purl.org/dc/elements/1.1/" xmlns:cc="http://creativecommons.org/ns#" xmlns:rdf="http://www.w3.org/1999/02/22-rdf-syntax-ns#">
   <cc:Work>
    <dc:type rdf:resource="http://purl.org/dc/dcmitype/StillImage"/>
    <dc:date>2026-01-28T15:53:55.557765</dc:date>
    <dc:format>image/svg+xml</dc:format>
    <dc:creator>
     <cc:Agent>
      <dc:title>Matplotlib v3.5.1, https://matplotlib.org/</dc:title>
     </cc:Agent>
    </dc:creator>
   </cc:Work>
  </rdf:RDF>
 </metadata>
 <defs>
  <style type="text/css">*{stroke-linejoin: round; stroke-linecap: butt}</style>
 </defs>
 <g id="figure_1">
  <g id="patch_1">
   <path d="M 0 298.035469 
L 398.509375 298.035469 
L 398.509375 0 
L 0 0 
z
" style="fill: #ffffff"/>
  </g>
  <g id="axes_1">
   <g id="patch_2">
    <path d="M 46.965625 260.479219 
L 381.765625 260.479219 
L 381.765625 10.999219 
L 46.965625 10.999219 
z
" style="fill: #ffffff"/>
   </g>
   <g id="patch_3">
    <path d="M 203.462026 205.433952 
L 381.765625 205.433952 
L 381.765625 10.999219 
L 203.462026 10.999219 
z
" clip-path="url(#pe3e2865162)" style="fill: #d3d3d3"/>
   </g>
   <g id="matplotlib.axis_1">
    <g id="xtick_1">
     <g id="line2d_1">
      <path d="M 46.965625 260.479219 
L 46.965625 10.999219 
" clip-path="url(#pe3e2865162)" style="fill: none; stroke: #b0b0b0; stroke-width: 0.8; stroke-linecap: square"/>
     </g>
     <g id="line2d_2">
      <defs>
       <path id="mc283e71028" d="M 0 0 
L 0 3.5 
" style="stroke: #000000; stroke-width: 0.8"/>
      </defs>
      <g>
       <use xlink:href="#mc283e71028" x="46.965625" y="260.479219" style="stroke: #000000; stroke-width: 0.8"/>
      </g>
     </g>
     <g id="text_1">
      <!-- 0 -->
      <g transform="translate(43.784375 275.077656)scale(0.1 -0.1)">
       <defs>
        <path id="DejaVuSans-30" d="M 2034 4250 
Q 1547 4250 1301 3770 
Q 1056 3291 1056 2328 
Q 1056 1369 1301 889 
Q 1547 409 2034 409 
Q 2525 409 2770 889 
Q 3016 1369 3016 2328 
Q 3016 3291 2770 3770 
Q 2525 4250 2034 4250 
z
M 2034 4750 
Q 2819 4750 3233 4129 
Q 3647 3509 3647 2328 
Q 3647 1150 3233 529 
Q 2819 -91 2034 -91 
Q 1250 -91 836 529 
Q 422 1150 422 2328 
Q 422 3509 836 4129 
Q 1250 4750 2034 4750 
z
" transform="scale(0.015625)"/>
       </defs>
       <use xlink:href="#DejaVuSans-30"/>
      </g>
     </g>
    </g>
    <g id="xtick_2">
     <g id="line2d_3">
      <path d="M 88.815625 260.479219 
L 88.815625 10.999219 
" clip-path="url(#pe3e2865162)" style="fill: none; stroke: #b0b0b0; stroke-width: 0.8; stroke-linecap: square"/>
     </g>
     <g id="line2d_4">
      <g>
       <use xlink:href="#mc283e71028" x="88.815625" y="260.479219" style="stroke: #000000; stroke-width: 0.8"/>
      </g>
     </g>
     <g id="text_2">
      <!-- 100 -->
      <g transform="translate(79.271875 275.077656)scale(0.1 -0.1)">
       <defs>
        <path id="DejaVuSans-31" d="M 794 531 
L 1825 531 
L 1825 4091 
L 703 3866 
L 703 4441 
L 1819 4666 
L 2450 4666 
L 2450 531 
L 3481 531 
L 3481 0 
L 794 0 
L 794 531 
z
" transform="scale(0.015625)"/>
       </defs>
       <use xlink:href="#DejaVuSans-31"/>
       <use xlink:href="#DejaVuSans-30" x="63.623047"/>
       <use xlink:href="#DejaVuSans-30" x="127.246094"/>
      </g>
     </g>
    </g>
    <g id="xtick_3">
     <g id="line2d_5">
      <path d="M 130.665625 260.479219 
L 130.665625 10.999219 
" clip-path="url(#pe3e2865162)" style="fill: none; stroke: #b0b0b0; stroke-width: 0.8; stroke-linecap: square"/>
     </g>
     <g id="line2d_6">
      <g>
       <use xlink:href="#mc283e71028" x="130.665625" y="260.479219" style="stroke: #000000; stroke-width: 0.8"/>
      </g>
     </g>
     <g id="text_3">
      <!-- 200 -->
      <g transform="translate(121.121875 275.077656)scale(0.1 -0.1)">
       <defs>
        <path id="DejaVuSans-32" d="M 1228 531 
L 3431 531 
L 3431 0 
L 469 0 
L 469 531 
Q 828 903 1448 1529 
Q 2069 2156 2228 2338 
Q 2531 2678 2651 2914 
Q 2772 3150 2772 3378 
Q 2772 3750 2511 3984 
Q 2250 4219 1831 4219 
Q 1534 4219 1204 4116 
Q 875 4013 500 3803 
L 500 4441 
Q 881 4594 1212 4672 
Q 1544 4750 1819 4750 
Q 2544 4750 2975 4387 
Q 3406 4025 3406 3419 
Q 3406 3131 3298 2873 
Q 3191 2616 2906 2266 
Q 2828 2175 2409 1742 
Q 1991 1309 1228 531 
z
" transform="scale(0.015625)"/>
       </defs>
       <use xlink:href="#DejaVuSans-32"/>
       <use xlink:href="#DejaVuSans-30" x="63.623047"/>
       <use xlink:href="#DejaVuSans-30" x="127.246094"/>
      </g>
     </g>
    </g>
    <g id="xtick_4">
     <g id="line2d_7">
      <path d="M 172.515625 260.479219 
L 172.515625 10.999219 
" clip-path="url(#pe3e2865162)" style="fill: none; stroke: #b0b0b0; stroke-width: 0.8; stroke-linecap: square"/>
     </g>
     <g id="line2d_8">
      <g>
       <use xlink:href="#mc283e71028" x="172.515625" y="260.479219" style="stroke: #000000; stroke-width: 0.8"/>
      </g>
     </g>
     <g id="text_4">
      <!-- 300 -->
      <g transform="translate(162.971875 275.077656)scale(0.1 -0.1)">
       <defs>
        <path id="DejaVuSans-33" d="M 2597 2516 
Q 3050 2419 3304 2112 
Q 3559 1806 3559 1356 
Q 3559 666 3084 287 
Q 2609 -91 1734 -91 
Q 1441 -91 1130 -33 
Q 819 25 488 141 
L 488 750 
Q 750 597 1062 519 
Q 1375 441 1716 441 
Q 2309 441 2620 675 
Q 2931 909 2931 1356 
Q 2931 1769 2642 2001 
Q 2353 2234 1838 2234 
L 1294 2234 
L 1294 2753 
L 1863 2753 
Q 2328 2753 2575 2939 
Q 2822 3125 2822 3475 
Q 2822 3834 2567 4026 
Q 2313 4219 1838 4219 
Q 1578 4219 1281 4162 
Q 984 4106 628 3988 
L 628 4550 
Q 988 4650 1302 4700 
Q 1616 4750 1894 4750 
Q 2613 4750 3031 4423 
Q 3450 4097 3450 3541 
Q 3450 3153 3228 2886 
Q 3006 2619 2597 2516 
z
" transform="scale(0.015625)"/>
       </defs>
       <use xlink:href="#DejaVuSans-33"/>
       <use xlink:href="#DejaVuSans-30" x="63.623047"/>
       <use xlink:href="#DejaVuSans-30" x="127.246094"/>
      </g>
     </g>
    </g>
    <g id="xtick_5">
     <g id="line2d_9">
      <path d="M 214.365625 260.479219 
L 214.365625 10.999219 
" clip-path="url(#pe3e2865162)" style="fill: none; stroke: #b0b0b0; stroke-width: 0.8; stroke-linecap: square"/>
     </g>
     <g id="line2d_10">
      <g>
       <use xlink:href="#mc283e71028" x="214.365625" y="260.479219" style="stroke: #000000; stroke-width: 0.8"/>
      </g>
     </g>
     <g id="text_5">
      <!-- 400 -->
      <g transform="translate(204.821875 275.077656)scale(0.1 -0.1)">
       <defs>
        <path id="DejaVuSans-34" d="M 2419 4116 
L 825 1625 
L 2419 1625 
L 2419 4116 
z
M 2253 4666 
L 3047 4666 
L 3047 1625 
L 3713 1625 
L 3713 1100 
L 3047 1100 
L 3047 0 
L 2419 0 
L 2419 1100 
L 313 1100 
L 313 1709 
L 2253 4666 
z
" transform="scale(0.015625)"/>
       </defs>
       <use xlink:href="#DejaVuSans-34"/>
       <use xlink:href="#DejaVuSans-30" x="63.623047"/>
       <use xlink:href="#DejaVuSans-30" x="127.246094"/>
      </g>
     </g>
    </g>
    <g id="xtick_6">
     <g id="line2d_11">
      <path d="M 256.215625 260.479219 
L 256.215625 10.999219 
" clip-path="url(#pe3e2865162)" style="fill: none; stroke: #b0b0b0; stroke-width: 0.8; stroke-linecap: square"/>
     </g>
     <g id="line2d_12">
      <g>
       <use xlink:href="#mc283e71028" x="256.215625" y="260.479219" style="stroke: #000000; stroke-width: 0.8"/>
      </g>
     </g>
     <g id="text_6">
      <!-- 500 -->
      <g transform="translate(246.671875 275.077656)scale(0.1 -0.1)">
       <defs>
        <path id="DejaVuSans-35" d="M 691 4666 
L 3169 4666 
L 3169 4134 
L 1269 4134 
L 1269 2991 
Q 1406 3038 1543 3061 
Q 1681 3084 1819 3084 
Q 2600 3084 3056 2656 
Q 3513 2228 3513 1497 
Q 3513 744 3044 326 
Q 2575 -91 1722 -91 
Q 1428 -91 1123 -41 
Q 819 9 494 109 
L 494 744 
Q 775 591 1075 516 
Q 1375 441 1709 441 
Q 2250 441 2565 725 
Q 2881 1009 2881 1497 
Q 2881 1984 2565 2268 
Q 2250 2553 1709 2553 
Q 1456 2553 1204 2497 
Q 953 2441 691 2322 
L 691 4666 
z
" transform="scale(0.015625)"/>
       </defs>
       <use xlink:href="#DejaVuSans-35"/>
       <use xlink:href="#DejaVuSans-30" x="63.623047"/>
       <use xlink:href="#DejaVuSans-30" x="127.246094"/>
      </g>
     </g>
    </g>
    <g id="xtick_7">
     <g id="line2d_13">
      <path d="M 298.065625 260.479219 
L 298.065625 10.999219 
" clip-path="url(#pe3e2865162)" style="fill: none; stroke: #b0b0b0; stroke-width: 0.8; stroke-linecap: square"/>
     </g>
     <g id="line2d_14">
      <g>
       <use xlink:href="#mc283e71028" x="298.065625" y="260.479219" style="stroke: #000000; stroke-width: 0.8"/>
      </g>
     </g>
     <g id="text_7">
      <!-- 600 -->
      <g transform="translate(288.521875 275.077656)scale(0.1 -0.1)">
       <defs>
        <path id="DejaVuSans-36" d="M 2113 2584 
Q 1688 2584 1439 2293 
Q 1191 2003 1191 1497 
Q 1191 994 1439 701 
Q 1688 409 2113 409 
Q 2538 409 2786 701 
Q 3034 994 3034 1497 
Q 3034 2003 2786 2293 
Q 2538 2584 2113 2584 
z
M 3366 4563 
L 3366 3988 
Q 3128 4100 2886 4159 
Q 2644 4219 2406 4219 
Q 1781 4219 1451 3797 
Q 1122 3375 1075 2522 
Q 1259 2794 1537 2939 
Q 1816 3084 2150 3084 
Q 2853 3084 3261 2657 
Q 3669 2231 3669 1497 
Q 3669 778 3244 343 
Q 2819 -91 2113 -91 
Q 1303 -91 875 529 
Q 447 1150 447 2328 
Q 447 3434 972 4092 
Q 1497 4750 2381 4750 
Q 2619 4750 2861 4703 
Q 3103 4656 3366 4563 
z
" transform="scale(0.015625)"/>
       </defs>
       <use xlink:href="#DejaVuSans-36"/>
       <use xlink:href="#DejaVuSans-30" x="63.623047"/>
       <use xlink:href="#DejaVuSans-30" x="127.246094"/>
      </g>
     </g>
    </g>
    <g id="xtick_8">
     <g id="line2d_15">
      <path d="M 339.915625 260.479219 
L 339.915625 10.999219 
" clip-path="url(#pe3e2865162)" style="fill: none; stroke: #b0b0b0; stroke-width: 0.8; stroke-linecap: square"/>
     </g>
     <g id="line2d_16">
      <g>
       <use xlink:href="#mc283e71028" x="339.915625" y="260.479219" style="stroke: #000000; stroke-width: 0.8"/>
      </g>
     </g>
     <g id="text_8">
      <!-- 700 -->
      <g transform="translate(330.371875 275.077656)scale(0.1 -0.1)">
       <defs>
        <path id="DejaVuSans-37" d="M 525 4666 
L 3525 4666 
L 3525 4397 
L 1831 0 
L 1172 0 
L 2766 4134 
L 525 4134 
L 525 4666 
z
" transform="scale(0.015625)"/>
       </defs>
       <use xlink:href="#DejaVuSans-37"/>
       <use xlink:href="#DejaVuSans-30" x="63.623047"/>
       <use xlink:href="#DejaVuSans-30" x="127.246094"/>
      </g>
     </g>
    </g>
    <g id="xtick_9">
     <g id="line2d_17">
      <path d="M 381.765625 260.479219 
L 381.765625 10.999219 
" clip-path="url(#pe3e2865162)" style="fill: none; stroke: #b0b0b0; stroke-width: 0.8; stroke-linecap: square"/>
     </g>
     <g id="line2d_18">
      <g>
       <use xlink:href="#mc283e71028" x="381.765625" y="260.479219" style="stroke: #000000; stroke-width: 0.8"/>
      </g>
     </g>
     <g id="text_9">
      <!-- 800 -->
      <g transform="translate(372.221875 275.077656)scale(0.1 -0.1)">
       <defs>
        <path id="DejaVuSans-38" d="M 2034 2216 
Q 1584 2216 1326 1975 
Q 1069 1734 1069 1313 
Q 1069 891 1326 650 
Q 1584 409 2034 409 
Q 2484 409 2743 651 
Q 3003 894 3003 1313 
Q 3003 1734 2745 1975 
Q 2488 2216 2034 2216 
z
M 1403 2484 
Q 997 2584 770 2862 
Q 544 3141 544 3541 
Q 544 4100 942 4425 
Q 1341 4750 2034 4750 
Q 2731 4750 3128 4425 
Q 3525 4100 3525 3541 
Q 3525 3141 3298 2862 
Q 3072 2584 2669 2484 
Q 3125 2378 3379 2068 
Q 3634 1759 3634 1313 
Q 3634 634 3220 271 
Q 2806 -91 2034 -91 
Q 1263 -91 848 271 
Q 434 634 434 1313 
Q 434 1759 690 2068 
Q 947 2378 1403 2484 
z
M 1172 3481 
Q 1172 3119 1398 2916 
Q 1625 2713 2034 2713 
Q 2441 2713 2670 2916 
Q 2900 3119 2900 3481 
Q 2900 3844 2670 4047 
Q 2441 4250 2034 4250 
Q 1625 4250 1398 4047 
Q 1172 3844 1172 3481 
z
" transform="scale(0.015625)"/>
       </defs>
       <use xlink:href="#DejaVuSans-38"/>
       <use xlink:href="#DejaVuSans-30" x="63.623047"/>
       <use xlink:href="#DejaVuSans-30" x="127.246094"/>
      </g>
     </g>
    </g>
    <g id="text_10">
     <!-- T ($^o$C) -->
     <g transform="translate(199.965625 288.755781)scale(0.1 -0.1)">
      <defs>
       <path id="DejaVuSans-54" d="M -19 4666 
L 3928 4666 
L 3928 4134 
L 2272 4134 
L 2272 0 
L 1638 0 
L 1638 4134 
L -19 4134 
L -19 4666 
z
" transform="scale(0.015625)"/>
       <path id="DejaVuSans-20" transform="scale(0.015625)"/>
       <path id="DejaVuSans-28" d="M 1984 4856 
Q 1566 4138 1362 3434 
Q 1159 2731 1159 2009 
Q 1159 1288 1364 580 
Q 1569 -128 1984 -844 
L 1484 -844 
Q 1016 -109 783 600 
Q 550 1309 550 2009 
Q 550 2706 781 3412 
Q 1013 4119 1484 4856 
L 1984 4856 
z
" transform="scale(0.015625)"/>
       <path id="DejaVuSans-Oblique-6f" d="M 1625 -91 
Q 1009 -91 651 289 
Q 294 669 294 1325 
Q 294 1706 417 2101 
Q 541 2497 738 2766 
Q 1047 3184 1428 3384 
Q 1809 3584 2291 3584 
Q 2888 3584 3255 3212 
Q 3622 2841 3622 2241 
Q 3622 1825 3500 1412 
Q 3378 1000 3181 728 
Q 2875 309 2494 109 
Q 2113 -91 1625 -91 
z
M 891 1344 
Q 891 869 1089 633 
Q 1288 397 1691 397 
Q 2269 397 2648 901 
Q 3028 1406 3028 2181 
Q 3028 2634 2825 2865 
Q 2622 3097 2228 3097 
Q 1903 3097 1650 2945 
Q 1397 2794 1197 2484 
Q 1050 2253 970 1956 
Q 891 1659 891 1344 
z
" transform="scale(0.015625)"/>
       <path id="DejaVuSans-43" d="M 4122 4306 
L 4122 3641 
Q 3803 3938 3442 4084 
Q 3081 4231 2675 4231 
Q 1875 4231 1450 3742 
Q 1025 3253 1025 2328 
Q 1025 1406 1450 917 
Q 1875 428 2675 428 
Q 3081 428 3442 575 
Q 3803 722 4122 1019 
L 4122 359 
Q 3791 134 3420 21 
Q 3050 -91 2638 -91 
Q 1578 -91 968 557 
Q 359 1206 359 2328 
Q 359 3453 968 4101 
Q 1578 4750 2638 4750 
Q 3056 4750 3426 4639 
Q 3797 4528 4122 4306 
z
" transform="scale(0.015625)"/>
       <path id="DejaVuSans-29" d="M 513 4856 
L 1013 4856 
Q 1481 4119 1714 3412 
Q 1947 2706 1947 2009 
Q 1947 1309 1714 600 
Q 1481 -109 1013 -844 
L 513 -844 
Q 928 -128 1133 580 
Q 1338 1288 1338 2009 
Q 1338 2731 1133 3434 
Q 928 4138 513 4856 
z
" transform="scale(0.015625)"/>
      </defs>
      <use xlink:href="#DejaVuSans-54" transform="translate(0 0.51875)"/>
      <use xlink:href="#DejaVuSans-20" transform="translate(61.083984 0.51875)"/>
      <use xlink:href="#DejaVuSans-28" transform="translate(92.871094 0.51875)"/>
      <use xlink:href="#DejaVuSans-Oblique-6f" transform="translate(132.841797 38.8)scale(0.7)"/>
      <use xlink:href="#DejaVuSans-43" transform="translate(178.40332 0.51875)"/>
      <use xlink:href="#DejaVuSans-29" transform="translate(248.227539 0.51875)"/>
     </g>
    </g>
   </g>
   <g id="matplotlib.axis_2">
    <g id="ytick_1">
     <g id="line2d_19">
      <path d="M 46.965625 260.479219 
L 381.765625 260.479219 
" clip-path="url(#pe3e2865162)" style="fill: none; stroke: #b0b0b0; stroke-width: 0.8; stroke-linecap: square"/>
     </g>
     <g id="line2d_20">
      <defs>
       <path id="m9157d6f8bb" d="M 0 0 
L -3.5 0 
" style="stroke: #000000; stroke-width: 0.8"/>
      </defs>
      <g>
       <use xlink:href="#m9157d6f8bb" x="46.965625" y="260.479219" style="stroke: #000000; stroke-width: 0.8"/>
      </g>
     </g>
     <g id="text_11">
      <!-- 0 -->
      <g transform="translate(33.603125 264.278437)scale(0.1 -0.1)">
       <use xlink:href="#DejaVuSans-30"/>
      </g>
     </g>
    </g>
    <g id="ytick_2">
     <g id="line2d_21">
      <path d="M 46.965625 210.583219 
L 381.765625 210.583219 
" clip-path="url(#pe3e2865162)" style="fill: none; stroke: #b0b0b0; stroke-width: 0.8; stroke-linecap: square"/>
     </g>
     <g id="line2d_22">
      <g>
       <use xlink:href="#m9157d6f8bb" x="46.965625" y="210.583219" style="stroke: #000000; stroke-width: 0.8"/>
      </g>
     </g>
     <g id="text_12">
      <!-- 20 -->
      <g transform="translate(27.240625 214.382437)scale(0.1 -0.1)">
       <use xlink:href="#DejaVuSans-32"/>
       <use xlink:href="#DejaVuSans-30" x="63.623047"/>
      </g>
     </g>
    </g>
    <g id="ytick_3">
     <g id="line2d_23">
      <path d="M 46.965625 160.687219 
L 381.765625 160.687219 
" clip-path="url(#pe3e2865162)" style="fill: none; stroke: #b0b0b0; stroke-width: 0.8; stroke-linecap: square"/>
     </g>
     <g id="line2d_24">
      <g>
       <use xlink:href="#m9157d6f8bb" x="46.965625" y="160.687219" style="stroke: #000000; stroke-width: 0.8"/>
      </g>
     </g>
     <g id="text_13">
      <!-- 40 -->
      <g transform="translate(27.240625 164.486437)scale(0.1 -0.1)">
       <use xlink:href="#DejaVuSans-34"/>
       <use xlink:href="#DejaVuSans-30" x="63.623047"/>
      </g>
     </g>
    </g>
    <g id="ytick_4">
     <g id="line2d_25">
      <path d="M 46.965625 110.791219 
L 381.765625 110.791219 
" clip-path="url(#pe3e2865162)" style="fill: none; stroke: #b0b0b0; stroke-width: 0.8; stroke-linecap: square"/>
     </g>
     <g id="line2d_26">
      <g>
       <use xlink:href="#m9157d6f8bb" x="46.965625" y="110.791219" style="stroke: #000000; stroke-width: 0.8"/>
      </g>
     </g>
     <g id="text_14">
      <!-- 60 -->
      <g transform="translate(27.240625 114.590437)scale(0.1 -0.1)">
       <use xlink:href="#DejaVuSans-36"/>
       <use xlink:href="#DejaVuSans-30" x="63.623047"/>
      </g>
     </g>
    </g>
    <g id="ytick_5">
     <g id="line2d_27">
      <path d="M 46.965625 60.895219 
L 381.765625 60.895219 
" clip-path="url(#pe3e2865162)" style="fill: none; stroke: #b0b0b0; stroke-width: 0.8; stroke-linecap: square"/>
     </g>
     <g id="line2d_28">
      <g>
       <use xlink:href="#m9157d6f8bb" x="46.965625" y="60.895219" style="stroke: #000000; stroke-width: 0.8"/>
      </g>
     </g>
     <g id="text_15">
      <!-- 80 -->
      <g transform="translate(27.240625 64.694437)scale(0.1 -0.1)">
       <use xlink:href="#DejaVuSans-38"/>
       <use xlink:href="#DejaVuSans-30" x="63.623047"/>
      </g>
     </g>
    </g>
    <g id="ytick_6">
     <g id="line2d_29">
      <path d="M 46.965625 10.999219 
L 381.765625 10.999219 
" clip-path="url(#pe3e2865162)" style="fill: none; stroke: #b0b0b0; stroke-width: 0.8; stroke-linecap: square"/>
     </g>
     <g id="line2d_30">
      <g>
       <use xlink:href="#m9157d6f8bb" x="46.965625" y="10.999219" style="stroke: #000000; stroke-width: 0.8"/>
      </g>
     </g>
     <g id="text_16">
      <!-- 100 -->
      <g transform="translate(20.878125 14.798438)scale(0.1 -0.1)">
       <use xlink:href="#DejaVuSans-31"/>
       <use xlink:href="#DejaVuSans-30" x="63.623047"/>
       <use xlink:href="#DejaVuSans-30" x="127.246094"/>
      </g>
     </g>
    </g>
    <g id="text_17">
     <!-- P (MPa) -->
     <g transform="translate(14.798438 154.412656)rotate(-90)scale(0.1 -0.1)">
      <defs>
       <path id="DejaVuSans-50" d="M 1259 4147 
L 1259 2394 
L 2053 2394 
Q 2494 2394 2734 2622 
Q 2975 2850 2975 3272 
Q 2975 3691 2734 3919 
Q 2494 4147 2053 4147 
L 1259 4147 
z
M 628 4666 
L 2053 4666 
Q 2838 4666 3239 4311 
Q 3641 3956 3641 3272 
Q 3641 2581 3239 2228 
Q 2838 1875 2053 1875 
L 1259 1875 
L 1259 0 
L 628 0 
L 628 4666 
z
" transform="scale(0.015625)"/>
       <path id="DejaVuSans-4d" d="M 628 4666 
L 1569 4666 
L 2759 1491 
L 3956 4666 
L 4897 4666 
L 4897 0 
L 4281 0 
L 4281 4097 
L 3078 897 
L 2444 897 
L 1241 4097 
L 1241 0 
L 628 0 
L 628 4666 
z
" transform="scale(0.015625)"/>
       <path id="DejaVuSans-61" d="M 2194 1759 
Q 1497 1759 1228 1600 
Q 959 1441 959 1056 
Q 959 750 1161 570 
Q 1363 391 1709 391 
Q 2188 391 2477 730 
Q 2766 1069 2766 1631 
L 2766 1759 
L 2194 1759 
z
M 3341 1997 
L 3341 0 
L 2766 0 
L 2766 531 
Q 2569 213 2275 61 
Q 1981 -91 1556 -91 
Q 1019 -91 701 211 
Q 384 513 384 1019 
Q 384 1609 779 1909 
Q 1175 2209 1959 2209 
L 2766 2209 
L 2766 2266 
Q 2766 2663 2505 2880 
Q 2244 3097 1772 3097 
Q 1472 3097 1187 3025 
Q 903 2953 641 2809 
L 641 3341 
Q 956 3463 1253 3523 
Q 1550 3584 1831 3584 
Q 2591 3584 2966 3190 
Q 3341 2797 3341 1997 
z
" transform="scale(0.015625)"/>
      </defs>
      <use xlink:href="#DejaVuSans-50"/>
      <use xlink:href="#DejaVuSans-20" x="60.302734"/>
      <use xlink:href="#DejaVuSans-28" x="92.089844"/>
      <use xlink:href="#DejaVuSans-4d" x="131.103516"/>
      <use xlink:href="#DejaVuSans-50" x="217.382812"/>
      <use xlink:href="#DejaVuSans-61" x="273.185547"/>
      <use xlink:href="#DejaVuSans-29" x="334.464844"/>
     </g>
    </g>
   </g>
   <g id="line2d_31">
    <path d="M 46.965625 260.477694 
L 48.546397 260.477221 
L 50.127168 260.476622 
L 51.70794 260.47587 
L 53.288712 260.474933 
L 54.869484 260.473774 
L 56.450255 260.472348 
L 58.031027 260.470606 
L 59.611799 260.468491 
L 61.192571 260.465938 
L 62.773342 260.462875 
L 64.354114 260.459219 
L 65.934886 260.454878 
L 67.515657 260.449749 
L 69.096429 260.44372 
L 70.677201 260.436665 
L 72.257973 260.428446 
L 73.838744 260.418913 
L 75.419516 260.407902 
L 77.000288 260.395234 
L 78.58106 260.380716 
L 80.161831 260.364139 
L 81.742603 260.34528 
L 83.323375 260.323898 
L 84.904146 260.299736 
L 86.484918 260.27252 
L 88.06569 260.241959 
L 89.646462 260.207742 
L 91.227233 260.169544 
L 92.808005 260.127019 
L 94.388777 260.079804 
L 95.969549 260.027516 
L 97.55032 259.969755 
L 99.131092 259.906101 
L 100.711864 259.836117 
L 102.292635 259.759345 
L 103.873407 259.675308 
L 105.454179 259.583514 
L 107.034951 259.483448 
L 108.615722 259.374578 
L 110.196494 259.256354 
L 111.777266 259.128208 
L 113.358038 258.989551 
L 114.938809 258.839778 
L 116.519581 258.678267 
L 118.100353 258.504376 
L 119.681124 258.317447 
L 121.261896 258.116803 
L 122.842668 257.901751 
L 124.42344 257.67158 
L 126.004211 257.425564 
L 127.584983 257.162957 
L 129.165755 256.883 
L 130.746527 256.584915 
L 132.327298 256.267909 
L 133.90807 255.931173 
L 135.488842 255.57388 
L 137.069613 255.19519 
L 138.650385 254.794243 
L 140.231157 254.370168 
L 141.811929 253.922073 
L 143.3927 253.449053 
L 144.973472 252.950186 
L 146.554244 252.424533 
L 148.135016 251.871139 
L 149.715787 251.28903 
L 151.296559 250.677217 
L 152.877331 250.034691 
L 154.458102 249.360425 
L 156.038874 248.653373 
L 157.619646 247.912466 
L 159.200418 247.136617 
L 160.781189 246.324714 
L 162.361961 245.475621 
L 163.942733 244.588177 
L 165.523505 243.661193 
L 167.104276 242.693449 
L 168.685048 241.683693 
L 170.26582 240.630637 
L 171.846591 239.532952 
L 173.427363 238.389269 
L 175.008135 237.198168 
L 176.588907 235.958175 
L 178.169678 234.667758 
L 179.75045 233.325314 
L 181.331222 231.929164 
L 182.911994 230.477542 
L 184.492765 228.96858 
L 186.073537 227.400295 
L 187.654309 225.770569 
L 189.23508 224.077126 
L 190.815852 222.317507 
L 192.396624 220.48903 
L 193.977396 218.588748 
L 195.558167 216.613381 
L 197.138939 214.559219 
L 198.719711 212.421949 
L 200.300483 210.196239 
L 201.881254 207.874247 
L 203.462026 205.433952 
" clip-path="url(#pe3e2865162)" style="fill: none; stroke: #000000; stroke-width: 1.5; stroke-linecap: square"/>
   </g>
   <g id="line2d_32">
    <defs>
     <path id="m4e589fcc24" d="M 0 3 
C 0.795609 3 1.55874 2.683901 2.12132 2.12132 
C 2.683901 1.55874 3 0.795609 3 0 
C 3 -0.795609 2.683901 -1.55874 2.12132 -2.12132 
C 1.55874 -2.683901 0.795609 -3 0 -3 
C -0.795609 -3 -1.55874 -2.683901 -2.12132 -2.12132 
C -2.683901 -1.55874 -3 -0.795609 -3 0 
C -3 0.795609 -2.683901 1.55874 -2.12132 2.12132 
C -1.55874 2.683901 -0.795609 3 0 3 
z
" style="stroke: #000000"/>
    </defs>
    <g clip-path="url(#pe3e2865162)">
     <use xlink:href="#m4e589fcc24" x="203.462026" y="205.433952" style="stroke: #000000"/>
    </g>
   </g>
   <g id="line2d_33">
    <path d="M 193.440625 219.24226 
L 196.622 217.138795 
L 199.433398 215.03533 
L 201.980007 212.931865 
L 204.324984 210.8284 
L 206.509772 208.724934 
L 208.563305 206.621469 
L 210.506732 204.518004 
L 212.356068 202.414539 
L 214.123784 200.311074 
L 215.819819 198.207609 
L 217.452245 196.104144 
L 219.027723 194.000679 
L 220.551827 191.897214 
L 222.029278 189.793749 
L 223.464114 187.690284 
L 224.859823 185.586819 
L 226.219441 183.483354 
L 227.545632 181.379889 
L 228.840745 179.276424 
L 230.106869 177.172959 
L 231.345866 175.069493 
L 232.55941 172.966028 
L 233.749007 170.862563 
L 234.916022 168.759098 
L 236.061693 166.655633 
L 237.187151 164.552168 
L 238.293428 162.448703 
L 239.381475 160.345238 
L 240.452162 158.241773 
L 241.506296 156.138308 
L 242.544621 154.034843 
L 243.567828 151.931378 
L 244.576559 149.827913 
L 245.571411 147.724448 
L 246.552942 145.620983 
L 247.521672 143.517518 
L 248.478091 141.414053 
L 249.422656 139.310587 
L 250.355797 137.207122 
L 251.277918 135.103657 
L 252.189402 133.000192 
L 253.090608 130.896727 
L 253.981875 128.793262 
L 254.863527 126.689797 
L 255.735867 124.586332 
L 256.599185 122.482867 
L 257.453754 120.379402 
L 258.299836 118.275937 
L 259.137678 116.172472 
L 259.967516 114.069007 
L 260.789576 111.965542 
L 261.604073 109.862077 
L 262.41121 107.758612 
L 263.211185 105.655146 
L 264.004185 103.551681 
L 264.790389 101.448216 
L 265.569968 99.344751 
L 266.343088 97.241286 
L 267.109906 95.137821 
L 267.870574 93.034356 
L 268.625238 90.930891 
L 269.374037 88.827426 
L 270.117106 86.723961 
L 270.854576 84.620496 
L 271.58657 82.517031 
L 272.313208 80.413566 
L 273.034608 78.310101 
L 273.750879 76.206636 
L 274.462131 74.103171 
L 275.168467 71.999706 
L 275.869987 69.89624 
L 276.56679 67.792775 
L 277.258968 65.68931 
L 277.946613 63.585845 
L 278.629813 61.48238 
L 279.308652 59.378915 
L 279.983213 57.27545 
L 280.653577 55.171985 
L 281.31982 53.06852 
L 281.982017 50.965055 
L 282.640242 48.86159 
L 283.294564 46.758125 
L 283.945054 44.65466 
L 284.591776 42.551195 
L 285.234796 40.44773 
L 285.874177 38.344265 
L 286.50998 36.240799 
L 287.142264 34.137334 
L 287.771087 32.033869 
L 288.396505 29.930404 
L 289.018573 27.826939 
L 289.637344 25.723474 
L 290.25287 23.620009 
L 290.865202 21.516544 
L 291.474389 19.413079 
L 292.080478 17.309614 
L 292.683517 15.206149 
L 293.283551 13.102684 
L 293.880625 10.999219 
" clip-path="url(#pe3e2865162)" style="fill: none; stroke-dasharray: 5.55,2.4; stroke-dashoffset: 0; stroke: #000000; stroke-width: 1.5"/>
   </g>
   <g id="line2d_34">
    <path d="M 193.440625 219.24226 
L 193.440625 10.999219 
" clip-path="url(#pe3e2865162)" style="fill: none; stroke-dasharray: 5.55,2.4; stroke-dashoffset: 0; stroke: #000000; stroke-width: 1.5"/>
   </g>
   <g id="line2d_35">
    <path d="M 203.462026 205.433952 
L 206.851876 200.783726 
L 210.158026 195.870157 
L 213.422326 190.622128 
L 216.686626 184.947815 
L 219.909076 178.89432 
L 223.089676 172.443854 
L 226.270276 165.483385 
L 229.409026 158.075173 
L 232.547776 150.089235 
L 235.644676 141.599603 
L 238.741576 132.457069 
L 241.838476 122.611421 
L 244.935376 112.008586 
L 247.990426 100.750339 
L 251.045476 88.638399 
L 254.100526 75.608035 
L 257.155576 61.589602 
L 260.210626 46.508178 
L 263.265676 30.283158 
L 266.320726 12.827826 
L 266.613676 11.086016 
L 266.613676 11.086016 
" clip-path="url(#pe3e2865162)" style="fill: none; stroke: #ff0000; stroke-width: 1.5; stroke-linecap: square"/>
   </g>
   <g id="line2d_36">
    <path d="M 203.462026 205.433952 
L 204.801226 196.168202 
L 206.140426 185.342753 
L 207.479626 172.695059 
L 208.818826 157.918384 
L 210.158026 140.654357 
L 211.497226 120.484282 
L 212.836426 96.918986 
L 214.175626 69.386953 
L 215.514826 37.220463 
L 216.435526 12.017373 
L 216.435526 12.017373 
" clip-path="url(#pe3e2865162)" style="fill: none; stroke: #0000ff; stroke-width: 1.5; stroke-linecap: square"/>
   </g>
   <g id="line2d_37">
    <path d="M 203.462026 205.433952 
L 211.078726 201.662865 
L 218.486176 197.74773 
L 225.726226 193.669351 
L 232.798876 189.429372 
L 239.704126 185.030271 
L 246.441976 180.475394 
L 253.054276 175.738149 
L 259.541026 170.818385 
L 265.944076 165.682051 
L 272.221576 160.360892 
L 278.415376 154.818013 
L 284.483626 149.089995 
L 290.468176 143.136931 
L 296.410876 136.910711 
L 302.269876 130.448846 
L 308.045176 123.748665 
L 313.778626 116.755576 
L 319.470226 109.459819 
L 325.078126 101.909222 
L 330.644176 94.041722 
L 336.168376 85.847467 
L 341.650726 77.316482 
L 347.091226 68.438679 
L 352.489876 59.203869 
L 357.888526 49.524978 
L 363.245326 39.461134 
L 368.560276 29.001476 
L 373.875226 18.046815 
L 377.139526 11.063314 
L 377.139526 11.063314 
" clip-path="url(#pe3e2865162)" style="fill: none; stroke: #0000ff; stroke-width: 1.5; stroke-linecap: square"/>
   </g>
   <g id="patch_4">
    <path d="M 46.965625 260.479219 
L 46.965625 10.999219 
" style="fill: none; stroke: #000000; stroke-width: 0.8; stroke-linejoin: miter; stroke-linecap: square"/>
   </g>
   <g id="patch_5">
    <path d="M 381.765625 260.479219 
L 381.765625 10.999219 
" style="fill: none; stroke: #000000; stroke-width: 0.8; stroke-linejoin: miter; stroke-linecap: square"/>
   </g>
   <g id="patch_6">
    <path d="M 46.965625 260.479219 
L 381.765625 260.479219 
" style="fill: none; stroke: #000000; stroke-width: 0.8; stroke-linejoin: miter; stroke-linecap: square"/>
   </g>
   <g id="patch_7">
    <path d="M 46.965625 10.999219 
L 381.765625 10.999219 
" style="fill: none; stroke: #000000; stroke-width: 0.8; stroke-linejoin: miter; stroke-linecap: square"/>
   </g>
  </g>
  <g id="text_18">
   <g id="patch_8">
    <path d="M 104.146875 106.798906 
C 106.225819 106.798906 108.219894 105.972933 109.689929 104.502898 
C 111.159964 103.032863 111.985938 101.038787 111.985938 98.959844 
C 111.985938 96.8809 111.159964 94.886825 109.689929 93.416789 
C 108.219894 91.946754 106.225819 91.120781 104.146875 91.120781 
C 102.067931 91.120781 100.073856 91.946754 98.603821 93.416789 
C 97.133786 94.886825 96.307812 96.8809 96.307812 98.959844 
C 96.307812 101.038787 97.133786 103.032863 98.603821 104.502898 
C 100.073856 105.972933 102.067931 106.798906 104.146875 106.798906 
z
" style="fill: #ffffff; stroke: #000000; stroke-linejoin: miter"/>
   </g>
   <!-- 1 -->
   <g transform="translate(100.965625 101.719219)scale(0.1 -0.1)">
    <use xlink:href="#DejaVuSans-31"/>
   </g>
  </g>
  <g id="text_19">
   <g id="patch_9">
    <path d="M 298.546875 213.718906 
C 300.625819 213.718906 302.619894 212.892933 304.089929 211.422898 
C 305.559964 209.952863 306.385937 207.958787 306.385937 205.879844 
C 306.385937 203.8009 305.559964 201.806825 304.089929 200.336789 
C 302.619894 198.866754 300.625819 198.040781 298.546875 198.040781 
C 296.467931 198.040781 294.473856 198.866754 293.003821 200.336789 
C 291.533786 201.806825 290.707812 203.8009 290.707812 205.879844 
C 290.707812 207.958787 291.533786 209.952863 293.003821 211.422898 
C 294.473856 212.892933 296.467931 213.718906 298.546875 213.718906 
z
" style="fill: #ffffff; stroke: #000000; stroke-linejoin: miter"/>
   </g>
   <!-- 2 -->
   <g transform="translate(295.365625 208.639219)scale(0.1 -0.1)">
    <use xlink:href="#DejaVuSans-32"/>
   </g>
  </g>
  <g id="text_20">
   <g id="patch_10">
    <path d="M 233.746875 58.198906 
C 235.825819 58.198906 237.819894 57.372933 239.289929 55.902898 
C 240.759964 54.432863 241.585938 52.438787 241.585938 50.359844 
C 241.585938 48.2809 240.759964 46.286825 239.289929 44.816789 
C 237.819894 43.346754 235.825819 42.520781 233.746875 42.520781 
C 231.667931 42.520781 229.673856 43.346754 228.203821 44.816789 
C 226.733786 46.286825 225.907813 48.2809 225.907813 50.359844 
C 225.907813 52.438787 226.733786 54.432863 228.203821 55.902898 
C 229.673856 57.372933 231.667931 58.198906 233.746875 58.198906 
z
" style="fill: #ffffff; stroke: #000000; stroke-linejoin: miter"/>
   </g>
   <!-- 3 -->
   <g transform="translate(230.565625 53.119219)scale(0.1 -0.1)">
    <use xlink:href="#DejaVuSans-33"/>
   </g>
  </g>
 </g>
 <defs>
  <clipPath id="pe3e2865162">
   <rect x="46.965625" y="10.999219" width="334.8" height="249.48"/>
  </clipPath>
 </defs>
</svg>
