<?xml version="1.0" encoding="UTF-8" standalone="no"?>
<svg
   width="491.82108pt"
   height="298.03546pt"
   viewBox="0 0 491.82108 298.03547"
   version="1.1"
   id="svg13749"
   sodipodi:docname="supercritical.svg"
   inkscape:version="1.1.2 (0a00cf5339, 2022-02-04)"
   inkscape:export-filename="/home/acro018/software/geothermal/waiwera/code/doc/user/supercritical.png"
   inkscape:export-xdpi="200.51305"
   inkscape:export-ydpi="200.51305"
   xmlns:inkscape="http://www.inkscape.org/namespaces/inkscape"
   xmlns:sodipodi="http://sodipodi.sourceforge.net/DTD/sodipodi-0.dtd"
   xmlns:xlink="http://www.w3.org/1999/xlink"
   xmlns="http://www.w3.org/2000/svg"
   xmlns:svg="http://www.w3.org/2000/svg"
   xmlns:rdf="http://www.w3.org/1999/02/22-rdf-syntax-ns#"
   xmlns:cc="http://creativecommons.org/ns#"
   xmlns:dc="http://purl.org/dc/elements/1.1/">
  <sodipodi:namedview
     id="namedview13751"
     pagecolor="#ffffff"
     bordercolor="#666666"
     borderopacity="1.0"
     inkscape:pageshadow="2"
     inkscape:pageopacity="0.0"
     inkscape:pagecheckerboard="0"
     inkscape:document-units="pt"
     showgrid="false"
     fit-margin-top="0"
     fit-margin-left="0"
     fit-margin-right="0"
     fit-margin-bottom="0"
     inkscape:zoom="1.2794026"
     inkscape:cx="280.20891"
     inkscape:cy="226.27749"
     inkscape:window-width="1850"
     inkscape:window-height="1016"
     inkscape:window-x="0"
     inkscape:window-y="0"
     inkscape:window-maximized="1"
     inkscape:current-layer="svg13749" />
  <metadata
     id="metadata13331">
    <rdf:RDF>
      <cc:Work>
        <dc:type
           rdf:resource="http://purl.org/dc/dcmitype/StillImage" />
        <dc:date>2026-01-28T15:53:55.557765</dc:date>
        <dc:format>image/svg+xml</dc:format>
        <dc:creator>
          <cc:Agent>
            <dc:title>Matplotlib v3.5.1, https://matplotlib.org/</dc:title>
          </cc:Agent>
        </dc:creator>
      </cc:Work>
    </rdf:RDF>
  </metadata>
  <defs
     id="defs13335">
    <style
       type="text/css"
       id="style13333">*{stroke-linejoin: round; stroke-linecap: butt}</style>
    <clipPath
       id="pe3e2865162-5">
      <rect
         x="46.965626"
         y="10.999219"
         width="334.79999"
         height="249.48"
         id="rect13744-4" />
    </clipPath>
    <path
       id="DejaVuSans-38-8"
       d="m 2034,2216 q -450,0 -708,-241 -257,-241 -257,-662 0,-422 257,-663 258,-241 708,-241 450,0 709,242 260,243 260,662 0,421 -258,662 -257,241 -711,241 z m -631,268 q -406,100 -633,378 -226,279 -226,679 0,559 398,884 399,325 1092,325 697,0 1094,-325 397,-325 397,-884 0,-400 -227,-679 -226,-278 -629,-378 456,-106 710,-416 255,-309 255,-755 Q 3634,634 3220,271 2806,-91 2034,-91 1263,-91 848,271 434,634 434,1313 q 0,446 256,755 257,310 713,416 z m -231,997 q 0,-362 226,-565 227,-203 636,-203 407,0 636,203 230,203 230,565 0,363 -230,566 -229,203 -636,203 -409,0 -636,-203 -226,-203 -226,-566 z"
       transform="scale(0.015625)" />
    <path
       id="DejaVuSans-32-7"
       d="M 1228,531 H 3431 V 0 H 469 v 531 q 359,372 979,998 621,627 780,809 303,340 423,576 121,236 121,464 0,372 -261,606 -261,235 -680,235 -297,0 -627,-103 -329,-103 -704,-313 v 638 q 381,153 712,231 332,78 607,78 725,0 1156,-363 431,-362 431,-968 0,-288 -108,-546 -107,-257 -392,-607 -78,-91 -497,-524 Q 1991,1309 1228,531 Z"
       transform="scale(0.015625)" />
    <defs
       id="defs13396-2">
      <path
         id="path58704"
         d="M 1228,531 H 3431 V 0 H 469 v 531 q 359,372 979,998 621,627 780,809 303,340 423,576 121,236 121,464 0,372 -261,606 -261,235 -680,235 -297,0 -627,-103 -329,-103 -704,-313 v 638 q 381,153 712,231 332,78 607,78 725,0 1156,-363 431,-362 431,-968 0,-288 -108,-546 -107,-257 -392,-607 -78,-91 -497,-524 Q 1991,1309 1228,531 Z"
         transform="scale(0.015625)" />
    </defs>
    <defs
       id="defs13459">
      <path
         id="DejaVuSans-35"
         d="M 691,4666 H 3169 V 4134 H 1269 V 2991 q 137,47 274,70 138,23 276,23 781,0 1237,-428 457,-428 457,-1159 Q 3513,744 3044,326 2575,-91 1722,-91 1428,-91 1123,-41 819,9 494,109 v 635 q 281,-153 581,-228 300,-75 634,-75 541,0 856,284 316,284 316,772 0,487 -316,771 -315,285 -856,285 -253,0 -505,-56 -251,-56 -513,-175 z"
         transform="scale(0.015625)" />
    </defs>
  </defs>
  <g
     id="patch_1"
     transform="scale(1.2370681,1)">
    <path
       d="M 0,298.03547 H 398.50937 V 0 H 0 Z"
       style="fill:#ffffff"
       id="path13337" />
  </g>
  <g
     id="patch_2">
    <path
       d="M 46.965625,260.47922 H 381.76562 V 10.999219 H 46.965625 Z"
       style="fill:#ffffff"
       id="path13340" />
  </g>
  <g
     id="patch_3">
    <path
       d="M 203.46203,205.43395 H 381.76562 V 10.999219 H 203.46203 Z"
       clip-path="url(#pe3e2865162)"
       style="fill:#d3d3d3"
       id="path13343" />
  </g>
  <g
     id="patch_3-1"
     style="stroke-linecap:butt;stroke-linejoin:round"
     transform="matrix(0.54677862,0,0,0.35844793,270.51693,131.79658)">
    <path
       d="M 203.46203,205.43395 H 381.76562 V 10.999219 H 203.46203 Z"
       clip-path="url(#pe3e2865162-5)"
       style="fill:#d3d3d3"
       id="path13343-5" />
  </g>
  <g
     id="xtick_1">
    <g
       id="line2d_1">
      <path
         d="M 46.965625,260.47922 V 10.999219"
         clip-path="url(#pe3e2865162)"
         style="fill:none;stroke:#b0b0b0;stroke-width:0.8;stroke-linecap:square"
         id="path13346" />
    </g>
    <g
       id="line2d_2">
      <defs
         id="defs13350">
        <path
           id="mc283e71028"
           d="M 0,0 V 3.5"
           style="stroke:#000000;stroke-width:0.8" />
      </defs>
      <g
         id="g13354">
        <use
           xlink:href="#mc283e71028"
           x="46.965626"
           y="260.47922"
           style="stroke:#000000;stroke-width:0.8"
           id="use13352"
           width="100%"
           height="100%" />
      </g>
    </g>
    <g
       id="text_1">
      <!-- 0 -->
      <g
         transform="matrix(0.1,0,0,-0.1,43.784375,275.07766)"
         id="g13362">
        <defs
           id="defs13358">
          <path
             id="DejaVuSans-30"
             d="m 2034,4250 q -487,0 -733,-480 -245,-479 -245,-1442 0,-959 245,-1439 246,-480 733,-480 491,0 736,480 246,480 246,1439 0,963 -246,1442 -245,480 -736,480 z m 0,500 q 785,0 1199,-621 414,-620 414,-1801 0,-1178 -414,-1799 -414,-620 -1199,-620 -784,0 -1198,620 -414,621 -414,1799 0,1181 414,1801 414,621 1198,621 z"
             transform="scale(0.015625)" />
        </defs>
        <use
           xlink:href="#DejaVuSans-30"
           id="use13360"
           x="0"
           y="0"
           width="100%"
           height="100%" />
      </g>
    </g>
  </g>
  <g
     id="line2d_4">
    <g
       id="g13371">
      <use
         xlink:href="#mc283e71028"
         x="88.815628"
         y="260.47922"
         style="stroke:#000000;stroke-width:0.8"
         id="use13369"
         width="100%"
         height="100%" />
    </g>
  </g>
  <g
     id="text_2">
    <!-- 100 -->
    <g
       transform="matrix(0.1,0,0,-0.1,79.271875,275.07766)"
       id="g13383">
      <defs
         id="defs13375">
        <path
           id="DejaVuSans-31"
           d="M 794,531 H 1825 V 4091 L 703,3866 v 575 l 1116,225 h 631 V 531 H 3481 V 0 H 794 Z"
           transform="scale(0.015625)" />
      </defs>
      <use
         xlink:href="#DejaVuSans-31"
         id="use13377"
         x="0"
         y="0"
         width="100%"
         height="100%" />
      <use
         xlink:href="#DejaVuSans-30"
         x="63.623047"
         id="use13379"
         y="0"
         width="100%"
         height="100%" />
      <use
         xlink:href="#DejaVuSans-30"
         x="127.24609"
         id="use13381"
         y="0"
         width="100%"
         height="100%" />
    </g>
  </g>
  <g
     id="line2d_6">
    <g
       id="g13392">
      <use
         xlink:href="#mc283e71028"
         x="130.66562"
         y="260.47922"
         style="stroke:#000000;stroke-width:0.8"
         id="use13390"
         width="100%"
         height="100%" />
    </g>
  </g>
  <g
     id="text_3">
    <!-- 200 -->
    <g
       transform="matrix(0.1,0,0,-0.1,121.12188,275.07766)"
       id="g13404">
      <defs
         id="defs13396">
        <path
           id="DejaVuSans-32"
           d="M 1228,531 H 3431 V 0 H 469 v 531 q 359,372 979,998 621,627 780,809 303,340 423,576 121,236 121,464 0,372 -261,606 -261,235 -680,235 -297,0 -627,-103 -329,-103 -704,-313 v 638 q 381,153 712,231 332,78 607,78 725,0 1156,-363 431,-362 431,-968 0,-288 -108,-546 -107,-257 -392,-607 -78,-91 -497,-524 Q 1991,1309 1228,531 Z"
           transform="scale(0.015625)" />
      </defs>
      <use
         xlink:href="#DejaVuSans-32"
         id="use13398"
         x="0"
         y="0"
         width="100%"
         height="100%" />
      <use
         xlink:href="#DejaVuSans-30"
         x="63.623047"
         id="use13400"
         y="0"
         width="100%"
         height="100%" />
      <use
         xlink:href="#DejaVuSans-30"
         x="127.24609"
         id="use13402"
         y="0"
         width="100%"
         height="100%" />
    </g>
  </g>
  <g
     id="g58770"
     transform="translate(-2.7332666,-2.3797652)">
    <use
       xlink:href="#DejaVuSans-32-7"
       id="use13398-0"
       x="0"
       y="0"
       width="100%"
       height="100%"
       transform="matrix(0.1,0,0,-0.1,469.60009,275.97545)" />
    <use
       xlink:href="#DejaVuSans-30"
       x="63.623047"
       id="use13400-3"
       y="0"
       width="100%"
       height="100%"
       transform="matrix(0.1,0,0,-0.1,469.60009,275.97545)" />
    <use
       xlink:href="#DejaVuSans-30"
       x="127.24609"
       id="use13402-4"
       y="0"
       width="100%"
       height="100%"
       transform="matrix(0.1,0,0,-0.1,469.60009,275.97545)" />
    <use
       xlink:href="#DejaVuSans-30"
       x="127.24609"
       id="use13402-4-6"
       y="0"
       width="100%"
       height="100%"
       transform="matrix(0.1,0,0,-0.1,476.13131,275.97545)"
       style="stroke-linecap:butt;stroke-linejoin:round" />
  </g>
  <g
     id="line2d_8">
    <g
       id="g13413">
      <use
         xlink:href="#mc283e71028"
         x="172.51562"
         y="260.47922"
         style="stroke:#000000;stroke-width:0.8"
         id="use13411"
         width="100%"
         height="100%" />
    </g>
  </g>
  <g
     id="text_4">
    <!-- 300 -->
    <g
       transform="matrix(0.1,0,0,-0.1,162.97187,275.07766)"
       id="g13425">
      <defs
         id="defs13417">
        <path
           id="DejaVuSans-33"
           d="m 2597,2516 q 453,-97 707,-404 255,-306 255,-756 0,-690 -475,-1069 -475,-378 -1350,-378 -293,0 -604,58 -311,58 -642,174 v 609 q 262,-153 574,-231 313,-78 654,-78 593,0 904,234 311,234 311,681 0,413 -289,645 -289,233 -804,233 h -544 v 519 h 569 q 465,0 712,186 247,186 247,536 0,359 -255,551 -254,193 -729,193 -260,0 -557,-57 -297,-56 -653,-174 v 562 q 360,100 674,150 314,50 592,50 719,0 1137,-327 419,-326 419,-882 0,-388 -222,-655 -222,-267 -631,-370 z"
           transform="scale(0.015625)" />
      </defs>
      <use
         xlink:href="#DejaVuSans-33"
         id="use13419"
         x="0"
         y="0"
         width="100%"
         height="100%" />
      <use
         xlink:href="#DejaVuSans-30"
         x="63.623047"
         id="use13421"
         y="0"
         width="100%"
         height="100%" />
      <use
         xlink:href="#DejaVuSans-30"
         x="127.24609"
         id="use13423"
         y="0"
         width="100%"
         height="100%" />
    </g>
  </g>
  <g
     id="line2d_10">
    <g
       id="g13434">
      <use
         xlink:href="#mc283e71028"
         x="214.36563"
         y="260.47922"
         style="stroke:#000000;stroke-width:0.8"
         id="use13432"
         width="100%"
         height="100%" />
    </g>
  </g>
  <g
     id="text_5">
    <!-- 400 -->
    <g
       transform="matrix(0.1,0,0,-0.1,204.82187,275.07766)"
       id="g13446">
      <defs
         id="defs13438">
        <path
           id="DejaVuSans-34"
           d="M 2419,4116 825,1625 h 1594 z m -166,550 h 794 V 1625 h 666 V 1100 H 3047 V 0 H 2419 V 1100 H 313 v 609 z"
           transform="scale(0.015625)" />
      </defs>
      <use
         xlink:href="#DejaVuSans-34"
         id="use13440"
         x="0"
         y="0"
         width="100%"
         height="100%" />
      <use
         xlink:href="#DejaVuSans-30"
         x="63.623047"
         id="use13442"
         y="0"
         width="100%"
         height="100%" />
      <use
         xlink:href="#DejaVuSans-30"
         x="127.24609"
         id="use13444"
         y="0"
         width="100%"
         height="100%" />
    </g>
  </g>
  <g
     id="line2d_12">
    <g
       id="g13455">
      <use
         xlink:href="#mc283e71028"
         x="256.21564"
         y="260.47922"
         style="stroke:#000000;stroke-width:0.8"
         id="use13453"
         width="100%"
         height="100%" />
    </g>
  </g>
  <use
     xlink:href="#DejaVuSans-35"
     id="use13461"
     x="0"
     y="0"
     width="100%"
     height="100%"
     transform="matrix(0.1,0,0,-0.1,246.67187,275.07766)" />
  <use
     xlink:href="#DejaVuSans-30"
     x="63.623047"
     id="use13463"
     y="0"
     width="100%"
     height="100%"
     transform="matrix(0.1,0,0,-0.1,246.67187,275.07766)" />
  <use
     xlink:href="#DejaVuSans-30"
     x="127.24609"
     id="use13465"
     y="0"
     width="100%"
     height="100%"
     transform="matrix(0.1,0,0,-0.1,246.67187,275.07766)" />
  <g
     id="line2d_14">
    <g
       id="g13476">
      <use
         xlink:href="#mc283e71028"
         x="298.06561"
         y="260.47922"
         style="stroke:#000000;stroke-width:0.8"
         id="use13474"
         width="100%"
         height="100%" />
    </g>
  </g>
  <g
     id="text_7">
    <!-- 600 -->
    <g
       transform="matrix(0.1,0,0,-0.1,288.52188,275.07766)"
       id="g13488">
      <defs
         id="defs13480">
        <path
           id="DejaVuSans-36"
           d="m 2113,2584 q -425,0 -674,-291 -248,-290 -248,-796 0,-503 248,-796 249,-292 674,-292 425,0 673,292 248,293 248,796 0,506 -248,796 -248,291 -673,291 z m 1253,1979 v -575 q -238,112 -480,171 -242,60 -480,60 -625,0 -955,-422 -329,-422 -376,-1275 184,272 462,417 279,145 613,145 703,0 1111,-427 408,-426 408,-1160 0,-719 -425,-1154 -425,-434 -1131,-434 -810,0 -1238,620 -428,621 -428,1799 0,1106 525,1764 525,658 1409,658 238,0 480,-47 242,-47 505,-140 z"
           transform="scale(0.015625)" />
      </defs>
      <use
         xlink:href="#DejaVuSans-36"
         id="use13482"
         x="0"
         y="0"
         width="100%"
         height="100%" />
      <use
         xlink:href="#DejaVuSans-30"
         x="63.623047"
         id="use13484"
         y="0"
         width="100%"
         height="100%" />
      <use
         xlink:href="#DejaVuSans-30"
         x="127.24609"
         id="use13486"
         y="0"
         width="100%"
         height="100%" />
    </g>
  </g>
  <g
     id="line2d_16">
    <g
       id="g13497">
      <use
         xlink:href="#mc283e71028"
         x="339.91562"
         y="260.47922"
         style="stroke:#000000;stroke-width:0.8"
         id="use13495"
         width="100%"
         height="100%" />
    </g>
  </g>
  <g
     id="text_8">
    <!-- 700 -->
    <g
       transform="matrix(0.1,0,0,-0.1,330.37187,275.07766)"
       id="g13509">
      <defs
         id="defs13501">
        <path
           id="DejaVuSans-37"
           d="M 525,4666 H 3525 V 4397 L 1831,0 H 1172 L 2766,4134 H 525 Z"
           transform="scale(0.015625)" />
      </defs>
      <use
         xlink:href="#DejaVuSans-37"
         id="use13503"
         x="0"
         y="0"
         width="100%"
         height="100%" />
      <use
         xlink:href="#DejaVuSans-30"
         x="63.623047"
         id="use13505"
         y="0"
         width="100%"
         height="100%" />
      <use
         xlink:href="#DejaVuSans-30"
         x="127.24609"
         id="use13507"
         y="0"
         width="100%"
         height="100%" />
    </g>
  </g>
  <g
     id="line2d_17">
    <path
       d="M 381.76562,260.47922 V 10.999219"
       clip-path="url(#pe3e2865162)"
       style="fill:none;stroke:#b0b0b0;stroke-width:0.8;stroke-linecap:square"
       id="path13513" />
  </g>
  <g
     id="line2d_18">
    <g
       id="g13518">
      <use
         xlink:href="#mc283e71028"
         x="381.76562"
         y="260.47922"
         style="stroke:#000000;stroke-width:0.8"
         id="use13516"
         width="100%"
         height="100%" />
    </g>
  </g>
  <g
     id="text_10"
     transform="translate(41.700067)">
    <!-- T ($^o$C) -->
    <g
       transform="matrix(0.1,0,0,-0.1,199.96562,288.75578)"
       id="g13554">
      <defs
         id="defs13540">
        <path
           id="DejaVuSans-54"
           d="M -19,4666 H 3928 V 4134 H 2272 V 0 H 1638 V 4134 H -19 Z"
           transform="scale(0.015625)" />
        <path
           id="DejaVuSans-20"
           transform="scale(0.015625)"
           d="" />
        <path
           id="DejaVuSans-28"
           d="m 1984,4856 q -418,-718 -622,-1422 -203,-703 -203,-1425 0,-721 205,-1429 205,-708 620,-1424 h -500 q -468,735 -701,1444 -233,709 -233,1409 0,697 231,1403 232,707 703,1444 z"
           transform="scale(0.015625)" />
        <path
           id="DejaVuSans-Oblique-6f"
           d="m 1625,-91 q -616,0 -974,380 -357,380 -357,1036 0,381 123,776 124,396 321,665 309,418 690,618 381,200 863,200 597,0 964,-372 367,-371 367,-971 0,-416 -122,-829 Q 3378,1000 3181,728 2875,309 2494,109 2113,-91 1625,-91 Z M 891,1344 q 0,-475 198,-711 199,-236 602,-236 578,0 957,504 380,505 380,1280 0,453 -203,684 -203,232 -597,232 -325,0 -578,-152 -253,-151 -453,-461 -147,-231 -227,-528 -79,-297 -79,-612 z"
           transform="scale(0.015625)" />
        <path
           id="DejaVuSans-43"
           d="m 4122,4306 v -665 q -319,297 -680,443 -361,147 -767,147 -800,0 -1225,-489 -425,-489 -425,-1414 0,-922 425,-1411 425,-489 1225,-489 406,0 767,147 361,147 680,444 V 359 Q 3791,134 3420,21 3050,-91 2638,-91 1578,-91 968,557 359,1206 359,2328 q 0,1125 609,1773 610,649 1670,649 418,0 788,-111 371,-111 696,-333 z"
           transform="scale(0.015625)" />
        <path
           id="DejaVuSans-29"
           d="m 513,4856 h 500 q 468,-737 701,-1444 233,-706 233,-1403 0,-700 -233,-1409 -233,-709 -701,-1444 H 513 q 415,716 620,1424 205,708 205,1429 0,722 -205,1425 -205,704 -620,1422 z"
           transform="scale(0.015625)" />
      </defs>
      <use
         xlink:href="#DejaVuSans-54"
         transform="translate(0,0.51875)"
         id="use13542"
         x="0"
         y="0"
         width="100%"
         height="100%" />
      <use
         xlink:href="#DejaVuSans-20"
         transform="translate(61.083984,0.51875)"
         id="use13544"
         x="0"
         y="0"
         width="100%"
         height="100%" />
      <use
         xlink:href="#DejaVuSans-28"
         transform="translate(92.871094,0.51875)"
         id="use13546"
         x="0"
         y="0"
         width="100%"
         height="100%" />
      <use
         xlink:href="#DejaVuSans-Oblique-6f"
         transform="matrix(0.7,0,0,0.7,132.8418,38.8)"
         id="use13548"
         x="0"
         y="0"
         width="100%"
         height="100%" />
      <use
         xlink:href="#DejaVuSans-43"
         transform="translate(178.40332,0.51875)"
         id="use13550"
         x="0"
         y="0"
         width="100%"
         height="100%" />
      <use
         xlink:href="#DejaVuSans-29"
         transform="translate(248.22754,0.51875)"
         id="use13552"
         x="0"
         y="0"
         width="100%"
         height="100%" />
    </g>
  </g>
  <g
     id="ytick_1">
    <g
       id="line2d_19">
      <path
         d="M 46.965625,260.47922 H 381.76562"
         clip-path="url(#pe3e2865162)"
         style="fill:none;stroke:#b0b0b0;stroke-width:0.8;stroke-linecap:square"
         id="path13558" />
    </g>
    <g
       id="line2d_20">
      <defs
         id="defs13562">
        <path
           id="m9157d6f8bb"
           d="M 0,0 H -3.5"
           style="stroke:#000000;stroke-width:0.8" />
      </defs>
      <g
         id="g13566">
        <use
           xlink:href="#m9157d6f8bb"
           x="46.965626"
           y="260.47922"
           style="stroke:#000000;stroke-width:0.8"
           id="use13564"
           width="100%"
           height="100%" />
      </g>
    </g>
    <g
       id="text_11">
      <!-- 0 -->
      <g
         transform="matrix(0.1,0,0,-0.1,33.603125,264.27844)"
         id="g13571">
        <use
           xlink:href="#DejaVuSans-30"
           id="use13569"
           x="0"
           y="0"
           width="100%"
           height="100%" />
      </g>
    </g>
  </g>
  <g
     id="line2d_22">
    <g
       id="g13580">
      <use
         xlink:href="#m9157d6f8bb"
         x="46.965626"
         y="210.58322"
         style="stroke:#000000;stroke-width:0.8"
         id="use13578"
         width="100%"
         height="100%" />
    </g>
  </g>
  <g
     id="text_12">
    <!-- 20 -->
    <g
       transform="matrix(0.1,0,0,-0.1,27.240625,214.38244)"
       id="g13587">
      <use
         xlink:href="#DejaVuSans-32"
         id="use13583"
         x="0"
         y="0"
         width="100%"
         height="100%" />
      <use
         xlink:href="#DejaVuSans-30"
         x="63.623047"
         id="use13585"
         y="0"
         width="100%"
         height="100%" />
    </g>
  </g>
  <g
     id="line2d_24">
    <g
       id="g13596">
      <use
         xlink:href="#m9157d6f8bb"
         x="46.965626"
         y="160.68723"
         style="stroke:#000000;stroke-width:0.8"
         id="use13594"
         width="100%"
         height="100%" />
    </g>
  </g>
  <g
     id="text_13">
    <!-- 40 -->
    <g
       transform="matrix(0.1,0,0,-0.1,27.240625,164.48644)"
       id="g13603">
      <use
         xlink:href="#DejaVuSans-34"
         id="use13599"
         x="0"
         y="0"
         width="100%"
         height="100%" />
      <use
         xlink:href="#DejaVuSans-30"
         x="63.623047"
         id="use13601"
         y="0"
         width="100%"
         height="100%" />
    </g>
  </g>
  <g
     id="line2d_26">
    <g
       id="g13612">
      <use
         xlink:href="#m9157d6f8bb"
         x="46.965626"
         y="110.79122"
         style="stroke:#000000;stroke-width:0.8"
         id="use13610"
         width="100%"
         height="100%" />
    </g>
  </g>
  <g
     id="text_14">
    <!-- 60 -->
    <g
       transform="matrix(0.1,0,0,-0.1,27.240625,114.59044)"
       id="g13619">
      <use
         xlink:href="#DejaVuSans-36"
         id="use13615"
         x="0"
         y="0"
         width="100%"
         height="100%" />
      <use
         xlink:href="#DejaVuSans-30"
         x="63.623047"
         id="use13617"
         y="0"
         width="100%"
         height="100%" />
    </g>
  </g>
  <g
     id="line2d_28">
    <g
       id="g13628">
      <use
         xlink:href="#m9157d6f8bb"
         x="46.965626"
         y="60.895218"
         style="stroke:#000000;stroke-width:0.8"
         id="use13626"
         width="100%"
         height="100%" />
    </g>
  </g>
  <g
     id="text_15">
    <!-- 80 -->
    <g
       transform="matrix(0.1,0,0,-0.1,27.240625,64.694437)"
       id="g13635">
      <use
         xlink:href="#DejaVuSans-38"
         id="use13631"
         x="0"
         y="0"
         width="100%"
         height="100%" />
      <use
         xlink:href="#DejaVuSans-30"
         x="63.623047"
         id="use13633"
         y="0"
         width="100%"
         height="100%" />
    </g>
  </g>
  <g
     id="ytick_6">
    <g
       id="line2d_29">
      <path
         d="M 46.965625,10.999219 H 381.76562"
         clip-path="url(#pe3e2865162)"
         style="fill:none;stroke:#b0b0b0;stroke-width:0.8;stroke-linecap:square"
         id="path13639" />
    </g>
    <g
       id="line2d_30">
      <g
         id="g13644">
        <use
           xlink:href="#m9157d6f8bb"
           x="46.965626"
           y="10.999219"
           style="stroke:#000000;stroke-width:0.8"
           id="use13642"
           width="100%"
           height="100%" />
      </g>
    </g>
    <g
       id="text_16">
      <!-- 100 -->
      <g
         transform="matrix(0.1,0,0,-0.1,20.878125,14.798438)"
         id="g13653">
        <use
           xlink:href="#DejaVuSans-31"
           id="use13647"
           x="0"
           y="0"
           width="100%"
           height="100%" />
        <use
           xlink:href="#DejaVuSans-30"
           x="63.623047"
           id="use13649"
           y="0"
           width="100%"
           height="100%" />
        <use
           xlink:href="#DejaVuSans-30"
           x="127.24609"
           id="use13651"
           y="0"
           width="100%"
           height="100%" />
      </g>
    </g>
  </g>
  <g
     id="text_17">
    <!-- P (MPa) -->
    <g
       transform="matrix(0,-0.1,-0.1,0,14.798438,154.41266)"
       id="g13676">
      <defs
         id="defs13660">
        <path
           id="DejaVuSans-50"
           d="M 1259,4147 V 2394 h 794 q 441,0 681,228 241,228 241,650 0,419 -241,647 -240,228 -681,228 z m -631,519 h 1425 q 785,0 1186,-355 402,-355 402,-1039 0,-691 -402,-1044 -401,-353 -1186,-353 H 1259 V 0 H 628 Z"
           transform="scale(0.015625)" />
        <path
           id="DejaVuSans-4d"
           d="m 628,4666 h 941 L 2759,1491 3956,4666 h 941 V 0 H 4281 V 4097 L 3078,897 H 2444 L 1241,4097 V 0 H 628 Z"
           transform="scale(0.015625)" />
        <path
           id="DejaVuSans-61"
           d="m 2194,1759 q -697,0 -966,-159 -269,-159 -269,-544 0,-306 202,-486 202,-179 548,-179 479,0 768,339 289,339 289,901 v 128 z m 1147,238 V 0 H 2766 V 531 Q 2569,213 2275,61 1981,-91 1556,-91 q -537,0 -855,302 -317,302 -317,808 0,590 395,890 396,300 1180,300 h 807 v 57 q 0,397 -261,614 -261,217 -733,217 -300,0 -585,-72 -284,-72 -546,-216 v 532 q 315,122 612,182 297,61 578,61 760,0 1135,-394 375,-393 375,-1193 z"
           transform="scale(0.015625)" />
      </defs>
      <use
         xlink:href="#DejaVuSans-50"
         id="use13662"
         x="0"
         y="0"
         width="100%"
         height="100%" />
      <use
         xlink:href="#DejaVuSans-20"
         x="60.302734"
         id="use13664"
         y="0"
         width="100%"
         height="100%" />
      <use
         xlink:href="#DejaVuSans-28"
         x="92.089844"
         id="use13666"
         y="0"
         width="100%"
         height="100%" />
      <use
         xlink:href="#DejaVuSans-4d"
         x="131.10352"
         id="use13668"
         y="0"
         width="100%"
         height="100%" />
      <use
         xlink:href="#DejaVuSans-50"
         x="217.38281"
         id="use13670"
         y="0"
         width="100%"
         height="100%" />
      <use
         xlink:href="#DejaVuSans-61"
         x="273.18555"
         id="use13672"
         y="0"
         width="100%"
         height="100%" />
      <use
         xlink:href="#DejaVuSans-29"
         x="334.46484"
         id="use13674"
         y="0"
         width="100%"
         height="100%" />
    </g>
  </g>
  <g
     id="line2d_31">
    <path
       d="m 46.965625,260.47769 1.580772,-4.7e-4 1.580771,-6e-4 1.580772,-7.5e-4 1.580772,-9.4e-4 1.580772,-10e-4 1.580771,-10e-4 1.580772,-0.002 1.580772,-0.002 1.580772,-0.003 1.580771,-0.003 1.580772,-0.004 1.580772,-0.004 1.580771,-0.005 1.580772,-0.006 1.580772,-0.007 1.580772,-0.008 1.580771,-0.01 1.580772,-0.011 1.580772,-0.0127 1.580772,-0.0145 1.580771,-0.0166 1.580772,-0.0189 1.580772,-0.0214 1.580771,-0.0242 1.580772,-0.0272 1.580772,-0.0306 1.580772,-0.0342 1.580771,-0.0382 1.580772,-0.0425 1.580772,-0.0472 1.580772,-0.0523 1.580771,-0.0578 1.580772,-0.0637 1.580768,-0.07 1.58078,-0.0768 1.58077,-0.084 1.58077,-0.0918 1.58077,-0.10006 1.58077,-0.10887 1.58077,-0.11823 1.58078,-0.12814 1.58077,-0.13866 1.58077,-0.14977 1.58077,-0.16151 1.58077,-0.17389 1.58077,-0.18693 1.58078,-0.20065 1.58077,-0.21505 1.58077,-0.23017 1.58077,-0.24602 1.58077,-0.2626 1.58077,-0.27996 1.58078,-0.29808 1.58077,-0.31701 1.58077,-0.33674 1.58077,-0.35729 1.58077,-0.37869 1.58077,-0.40095 1.58078,-0.42407 1.58077,-0.4481 1.58077,-0.47302 1.58077,-0.49886 1.58077,-0.52566 1.58078,-0.55339 1.58077,-0.58211 1.58077,-0.61181 1.58077,-0.64253 1.58077,-0.67427 1.58077,-0.70705 1.58078,-0.7409 1.58077,-0.77585 1.58077,-0.81191 1.58077,-0.84909 1.58077,-0.88744 1.58077,-0.92699 1.58078,-0.96774 1.58077,-1.00976 1.58077,-1.05305 1.58077,-1.09769 1.58077,-1.14368 1.58077,-1.1911 1.58078,-1.24 1.58077,-1.29041 1.58077,-1.34245 1.58077,-1.39615 1.58077,-1.45162 1.58077,-1.50896 1.58078,-1.56829 1.58077,-1.62972 1.58077,-1.69344 1.58077,-1.75962 1.58077,-1.82848 1.58078,-1.90028 1.58077,-1.97537 1.58077,-2.05416 1.58077,-2.13727 1.58077,-2.22571 1.58077,-2.32199 1.58078,-2.4403"
       clip-path="url(#pe3e2865162)"
       style="fill:none;stroke:#000000;stroke-width:1.5;stroke-linecap:square"
       id="path13680" />
  </g>
  <g
     id="line2d_32">
    <defs
       id="defs13684">
      <path
         id="m4e589fcc24"
         d="M 0,3 C 0.795609,3 1.55874,2.683901 2.12132,2.12132 2.683901,1.55874 3,0.795609 3,0 3,-0.795609 2.683901,-1.55874 2.12132,-2.12132 1.55874,-2.683901 0.795609,-3 0,-3 -0.795609,-3 -1.55874,-2.683901 -2.12132,-2.12132 -2.683901,-1.55874 -3,-0.795609 -3,0 -3,0.795609 -2.683901,1.55874 -2.12132,2.12132 -1.55874,2.683901 -0.795609,3 0,3 Z"
         style="stroke:#000000" />
    </defs>
    <g
       clip-path="url(#pe3e2865162)"
       id="g13688">
      <use
         xlink:href="#m4e589fcc24"
         x="203.46202"
         y="205.43394"
         style="stroke:#000000"
         id="use13686"
         width="100%"
         height="100%" />
    </g>
  </g>
  <g
     id="line2d_33">
    <path
       d="m 193.44062,219.24226 3.18138,-2.10347 2.8114,-2.10346 2.54661,-2.10347 2.34497,-2.10346 2.18479,-2.10347 2.05354,-2.10346 1.94342,-2.10347 1.84934,-2.10346 1.76771,-2.10347 1.69604,-2.10346 1.63242,-2.10347 1.57548,-2.10346 1.52411,-2.10347 1.47745,-2.10346 1.43483,-2.10347 1.39571,-2.10346 1.35962,-2.10347 1.32619,-2.10346 1.29511,-2.10347 1.26613,-2.10346 1.239,-2.10347 1.21354,-2.10346 1.1896,-2.10347 1.16701,-2.10346 1.14567,-2.10347 1.12546,-2.10346 1.10628,-2.10347 1.08804,-2.10346 1.07069,-2.10347 1.05414,-2.10346 1.03832,-2.10347 1.02321,-2.10346 1.00873,-2.10347 0.99485,-2.10346 0.98153,-2.10347 0.96873,-2.10346 0.95642,-2.10347 0.94457,-2.10346 0.93314,-2.10347 0.92212,-2.10346 0.91148,-2.10347 0.90121,-2.10346 0.89126,-2.10347 0.88166,-2.10346 0.87234,-2.10347 0.86331,-2.10346 0.85457,-2.10347 0.84609,-2.10346 0.83784,-2.10347 0.82984,-2.10346 0.82206,-2.10347 0.81449,-2.10346 0.80714,-2.10347 0.79997,-2.10346 0.793,-2.10347 0.78621,-2.10346 0.77958,-2.103469 0.77312,-2.103465 0.76682,-2.103465 0.76066,-2.103465 0.75467,-2.103465 0.7488,-2.103465 0.74307,-2.103465 0.73747,-2.103465 0.73199,-2.103465 0.72664,-2.103465 0.7214,-2.103465 0.71627,-2.103465 0.71125,-2.103465 0.70634,-2.103465 0.70152,-2.103466 0.6968,-2.103465 0.69218,-2.103465 0.68764,-2.103465 0.6832,-2.103465 0.67884,-2.103465 0.67456,-2.103465 0.67037,-2.103465 0.66624,-2.103465 0.6622,-2.103465 0.65822,-2.103465 0.65432,-2.103465 0.65049,-2.103465 0.64673,-2.103465 0.64302,-2.103465 0.63938,-2.103465 0.6358,-2.103466 0.63228,-2.103465 0.62883,-2.103465 0.62541,-2.103465 0.62207,-2.103465 0.61877,-2.103465 0.61553,-2.103465 0.61233,-2.103465 0.60919,-2.103465 0.60609,-2.103465 0.60304,-2.103465 0.60003,-2.103465 0.59707,-2.103465"
       clip-path="url(#pe3e2865162)"
       style="fill:none;stroke:#000000;stroke-width:1.5;stroke-dasharray:5.55, 2.4;stroke-dashoffset:0"
       id="path13691" />
  </g>
  <g
     id="line2d_34">
    <path
       d="M 193.44062,219.24226 V 10.999219"
       clip-path="url(#pe3e2865162)"
       style="fill:none;stroke:#000000;stroke-width:1.5;stroke-dasharray:5.55, 2.4;stroke-dashoffset:0"
       id="path13694" />
  </g>
  <g
     id="line2d_35">
    <path
       d="m 203.46203,205.43395 3.38985,-4.65022 3.30615,-4.91357 3.2643,-5.24803 3.2643,-5.67432 3.22245,-6.05349 3.1806,-6.45047 3.1806,-6.96047 3.13875,-7.40821 3.13875,-7.98594 3.0969,-8.48963 3.0969,-9.14253 3.0969,-9.84565 3.0969,-10.60283 3.05505,-11.25825 3.05505,-12.111941 3.05505,-13.030364 3.05505,-14.018433 3.05505,-15.081424 3.05505,-16.22502 3.05505,-17.455332 0.29295,-1.74181 v 0"
       clip-path="url(#pe3e2865162)"
       style="fill:none;stroke:#ff0000;stroke-width:1.5;stroke-linecap:square"
       id="path13697" />
  </g>
  <g
     id="line2d_36">
    <path
       d="m 203.46203,205.43395 1.3392,-9.26575 1.3392,-10.82545 1.3392,-12.64769 1.3392,-14.77668 1.3392,-17.26402 1.3392,-20.17008 1.3392,-23.565294 1.3392,-27.532033 1.3392,-32.16649 0.9207,-25.20309 v 0"
       clip-path="url(#pe3e2865162)"
       style="fill:none;stroke:#0000ff;stroke-width:1.5;stroke-linecap:square"
       id="path13700" />
  </g>
  <g
     id="line2d_37">
    <path
       d="m 203.46203,205.43395 7.6167,-3.77109 7.40745,-3.91513 7.24005,-4.07838 7.07265,-4.23998 6.90525,-4.3991 6.73785,-4.55488 6.6123,-4.73724 6.48675,-4.91977 6.40305,-5.13633 6.2775,-5.32116 6.1938,-5.54288 6.06825,-5.72802 5.98455,-5.95306 5.9427,-6.22622 5.859,-6.46186 5.7753,-6.70018 5.73345,-6.99309 5.6916,-7.29576 5.6079,-7.5506 5.56605,-7.867498 5.5242,-8.194255 5.48235,-8.530985 5.4405,-8.877803 5.39865,-9.23481 5.39865,-9.678891 5.3568,-10.063844 5.31495,-10.459658 5.31495,-10.954661 3.2643,-6.983501 v 0"
       clip-path="url(#pe3e2865162)"
       style="fill:none;stroke:#0000ff;stroke-width:1.5;stroke-linecap:square"
       id="path13703" />
  </g>
  <g
     id="patch_4">
    <path
       d="M 46.965625,260.47922 V 10.999219"
       style="fill:none;stroke:#000000;stroke-width:0.8;stroke-linecap:square;stroke-linejoin:miter"
       id="path13706" />
  </g>
  <g
     id="text_9">
    <!-- 800 -->
    <g
       transform="matrix(0.1,0,0,-0.1,372.22187,275.07766)"
       id="g13530">
      <defs
         id="defs13522">
        <path
           id="DejaVuSans-38"
           d="m 2034,2216 q -450,0 -708,-241 -257,-241 -257,-662 0,-422 257,-663 258,-241 708,-241 450,0 709,242 260,243 260,662 0,421 -258,662 -257,241 -711,241 z m -631,268 q -406,100 -633,378 -226,279 -226,679 0,559 398,884 399,325 1092,325 697,0 1094,-325 397,-325 397,-884 0,-400 -227,-679 -226,-278 -629,-378 456,-106 710,-416 255,-309 255,-755 Q 3634,634 3220,271 2806,-91 2034,-91 1263,-91 848,271 434,634 434,1313 q 0,446 256,755 257,310 713,416 z m -231,997 q 0,-362 226,-565 227,-203 636,-203 407,0 636,203 230,203 230,565 0,363 -230,566 -229,203 -636,203 -409,0 -636,-203 -226,-203 -226,-566 z"
           transform="scale(0.015625)" />
      </defs>
      <use
         xlink:href="#DejaVuSans-38"
         id="use13524"
         x="0"
         y="0"
         width="100%"
         height="100%" />
      <use
         xlink:href="#DejaVuSans-30"
         x="63.623047"
         id="use13526"
         y="0"
         width="100%"
         height="100%" />
      <use
         xlink:href="#DejaVuSans-30"
         x="127.24609"
         id="use13528"
         y="0"
         width="100%"
         height="100%" />
    </g>
  </g>
  <g
     id="patch_5">
    <path
       d="M 381.76562,260.47922 V 10.999219"
       style="fill:none;stroke:#000000;stroke-width:0.8;stroke-linecap:square;stroke-linejoin:miter"
       id="path13709" />
  </g>
  <g
     id="patch_6">
    <path
       d="M 46.965625,260.47922 H 381.76562"
       style="fill:none;stroke:#000000;stroke-width:0.8;stroke-linecap:square;stroke-linejoin:miter"
       id="path13712" />
  </g>
  <g
     id="patch_7">
    <path
       d="M 46.965625,10.999219 H 381.76562"
       style="fill:none;stroke:#000000;stroke-width:0.8;stroke-linecap:square;stroke-linejoin:miter"
       id="path13715" />
  </g>
  <g
     id="text_18">
    <g
       id="patch_8">
      <path
         d="m 104.14687,106.79891 c 2.07895,0 4.07302,-0.82598 5.54306,-2.29601 1.47003,-1.47004 2.29601,-3.46411 2.29601,-5.543056 0,-2.078944 -0.82598,-4.073019 -2.29601,-5.543055 -1.47004,-1.470035 -3.46411,-2.296008 -5.54306,-2.296008 -2.07894,0 -4.07301,0.825973 -5.543049,2.296008 -1.470035,1.470036 -2.296009,3.464111 -2.296009,5.543055 0,2.078946 0.825974,4.073016 2.296009,5.543056 1.470039,1.47003 3.464109,2.29601 5.543049,2.29601 z"
         style="fill:#ffffff;stroke:#000000;stroke-linejoin:miter"
         id="path13719" />
    </g>
    <!-- 1 -->
    <g
       transform="matrix(0.1,0,0,-0.1,100.96563,101.71922)"
       id="g13724">
      <use
         xlink:href="#DejaVuSans-31"
         id="use13722"
         x="0"
         y="0"
         width="100%"
         height="100%" />
    </g>
  </g>
  <g
     id="text_19">
    <g
       id="patch_9">
      <path
         d="m 298.54687,213.71891 c 2.07895,0 4.07302,-0.82598 5.54306,-2.29601 1.47003,-1.47004 2.29601,-3.46411 2.29601,-5.54306 0,-2.07894 -0.82598,-4.07302 -2.29601,-5.54305 -1.47004,-1.47004 -3.46411,-2.29601 -5.54306,-2.29601 -2.07894,0 -4.07301,0.82597 -5.54305,2.29601 -1.47003,1.47003 -2.29601,3.46411 -2.29601,5.54305 0,2.07895 0.82598,4.07302 2.29601,5.54306 1.47004,1.47003 3.46411,2.29601 5.54305,2.29601 z"
         style="fill:#ffffff;stroke:#000000;stroke-linejoin:miter"
         id="path13727" />
    </g>
    <!-- 2 -->
    <g
       transform="matrix(0.1,0,0,-0.1,295.36563,208.63922)"
       id="g13732">
      <use
         xlink:href="#DejaVuSans-32"
         id="use13730"
         x="0"
         y="0"
         width="100%"
         height="100%" />
    </g>
  </g>
  <g
     id="text_20">
    <g
       id="patch_10">
      <path
         d="m 233.74687,58.198906 c 2.07895,0 4.07302,-0.825973 5.54306,-2.296008 1.47003,-1.470035 2.29601,-3.464111 2.29601,-5.543054 0,-2.078944 -0.82598,-4.073019 -2.29601,-5.543055 -1.47004,-1.470035 -3.46411,-2.296008 -5.54306,-2.296008 -2.07894,0 -4.07301,0.825973 -5.54305,2.296008 -1.47003,1.470036 -2.29601,3.464111 -2.29601,5.543055 0,2.078943 0.82598,4.073019 2.29601,5.543054 1.47004,1.470035 3.46411,2.296008 5.54305,2.296008 z"
         style="fill:#ffffff;stroke:#000000;stroke-linejoin:miter"
         id="path13735" />
    </g>
    <!-- 3 -->
    <g
       transform="matrix(0.1,0,0,-0.1,230.56562,53.119219)"
       id="g13740">
      <use
         xlink:href="#DejaVuSans-33"
         id="use13738"
         x="0"
         y="0"
         width="100%"
         height="100%" />
    </g>
  </g>
  <defs
     id="defs13747">
    <clipPath
       id="pe3e2865162">
      <rect
         x="46.965626"
         y="10.999219"
         width="334.79999"
         height="249.48"
         id="rect13744" />
    </clipPath>
  </defs>
  <path
     style="fill:none;stroke:#000000;stroke-width:0.75px;stroke-linecap:butt;stroke-linejoin:miter;stroke-opacity:1"
     d="m 381.76562,260.47922 h 47.29994"
     id="path45428" />
  <path
     style="fill:none;stroke:#000000;stroke-width:0.75px;stroke-linecap:butt;stroke-linejoin:miter;stroke-opacity:1"
     d="m 381.76562,135.73922 h 47.29994"
     id="path45428-3" />
  <path
     style="fill:none;stroke:#000000;stroke-width:0.75px;stroke-linecap:butt;stroke-linejoin:miter;stroke-opacity:1"
     d="m 430.65867,130.39423 -3.8565,10.92439"
     id="path45765" />
  <path
     style="fill:none;stroke:#000000;stroke-width:0.75px;stroke-linecap:butt;stroke-linejoin:miter;stroke-opacity:1"
     d="m 431.0526,254.92145 -3.8565,10.92439"
     id="path45765-4" />
  <g
     id="g45910"
     transform="translate(-1.0999571)">
    <path
       style="fill:none;stroke:#000000;stroke-width:0.75px;stroke-linecap:butt;stroke-linejoin:miter;stroke-opacity:1"
       d="m 434.266,135.73922 h 45.85589 v 124.71484 h -45.74622"
       id="path45650" />
    <path
       style="fill:none;stroke:#000000;stroke-width:0.75px;stroke-linecap:butt;stroke-linejoin:miter;stroke-opacity:1"
       d="m 436.20807,130.39423 -3.8565,10.92439"
       id="path45765-9" />
    <path
       style="fill:none;stroke:#000000;stroke-width:0.75px;stroke-linecap:butt;stroke-linejoin:miter;stroke-opacity:1"
       d="m 436.602,254.92145 -3.8565,10.92439"
       id="path45765-9-1" />
  </g>
  <g
     id="g59019">
    <g
       id="patch_9-3"
       transform="translate(137.38002,-0.44532125)">
      <path
         d="m 298.54687,213.71891 c 2.07895,0 4.07302,-0.82598 5.54306,-2.29601 1.47003,-1.47004 2.29601,-3.46411 2.29601,-5.54306 0,-2.07894 -0.82598,-4.07302 -2.29601,-5.54305 -1.47004,-1.47004 -3.46411,-2.29601 -5.54306,-2.29601 -2.07894,0 -4.07301,0.82597 -5.54305,2.29601 -1.47003,1.47003 -2.29601,3.46411 -2.29601,5.54305 0,2.07895 0.82598,4.07302 2.29601,5.54306 1.47004,1.47003 3.46411,2.29601 5.54305,2.29601 z"
         style="fill:#ffffff;stroke:#000000;stroke-linejoin:miter"
         id="path13727-4" />
    </g>
    <use
       xlink:href="#DejaVuSans-35"
       id="use13461-7"
       x="0"
       y="0"
       width="100%"
       height="100%"
       transform="matrix(0.1,0,0,-0.1,432.79643,209.00874)"
       style="stroke-linecap:butt;stroke-linejoin:round" />
  </g>
</svg>
