<?xml version="1.0" encoding="UTF-8" standalone="no"?>
<!-- Created with matplotlib (http://matplotlib.org/) -->

<svg
   height="37.5pt"
   version="1.1"
   viewBox="0 0 49.999996 37.5"
   width="49.999996pt"
   id="svg1628"
   sodipodi:docname="temp_elev_plot.svg"
   inkscape:version="1.1.2 (0a00cf5339, 2022-02-04)"
   xmlns:inkscape="http://www.inkscape.org/namespaces/inkscape"
   xmlns:sodipodi="http://sodipodi.sourceforge.net/DTD/sodipodi-0.dtd"
   xmlns:xlink="http://www.w3.org/1999/xlink"
   xmlns="http://www.w3.org/2000/svg"
   xmlns:svg="http://www.w3.org/2000/svg">
  <sodipodi:namedview
     id="namedview1630"
     pagecolor="#ffffff"
     bordercolor="#666666"
     borderopacity="1.0"
     inkscape:pageshadow="2"
     inkscape:pageopacity="0.0"
     inkscape:pagecheckerboard="0"
     inkscape:document-units="pt"
     showgrid="false"
     fit-margin-top="0"
     fit-margin-left="0"
     fit-margin-right="0"
     fit-margin-bottom="0"
     inkscape:zoom="1.6190217"
     inkscape:cx="306.66667"
     inkscape:cy="230.07721"
     inkscape:window-width="1850"
     inkscape:window-height="1136"
     inkscape:window-x="0"
     inkscape:window-y="0"
     inkscape:window-maximized="1"
     inkscape:current-layer="svg1628" />
  <defs
     id="defs1246">
    <style
       type="text/css"
       id="style1244">
*{stroke-linecap:butt;stroke-linejoin:round;}
  </style>
  </defs>
  <g
     id="figure_1"
     transform="scale(0.10850694)">
    <g
       id="patch_1">
      <path
         d="M 0,345.6 H 460.8 V 0 H 0 Z"
         style="fill:#ffffff"
         id="path1248" />
    </g>
    <g
       id="axes_1">
      <g
         id="patch_2">
        <path
           d="M 57.6,307.584 H 414.72 V 41.472 H 57.6 Z"
           style="fill:#ffffff"
           id="path1251" />
      </g>
      <g
         id="matplotlib.axis_1">
        <g
           id="xtick_1">
          <g
             id="line2d_1">
            <defs
               id="defs1255">
              <path
                 d="M 0,0 V 3.5"
                 id="me91f6ae035"
                 style="stroke:#000000;stroke-width:0.8" />
            </defs>
            <g
               id="g1259">
              <use
                 style="stroke:#000000;stroke-width:0.8"
                 x="101.84887"
                 xlink:href="#me91f6ae035"
                 y="307.58401"
                 id="use1257"
                 width="100%"
                 height="100%" />
            </g>
          </g>
          <g
             id="text_1">
            <!-- 50 -->
            <defs
               id="defs1264">
              <path
                 d="m 10.796875,72.90625 h 38.71875 v -8.3125 h -29.6875 V 46.734375 q 2.140625,0.734375 4.28125,1.09375 2.15625,0.359375 4.3125,0.359375 Q 40.625,48.1875 47.75,41.5 54.890625,34.8125 54.890625,23.390625 54.890625,11.625 47.5625,5.09375 40.234375,-1.421875 26.90625,-1.421875 q -4.59375,0 -9.359375,0.78125 -4.75,0.78125 -9.828125,2.34375 V 11.625 q 4.390625,-2.390625 9.078125,-3.5625 4.6875,-1.171875 9.90625,-1.171875 8.453125,0 13.375,4.4375 4.9375,4.4375 4.9375,12.0625 0,7.609375 -4.9375,12.046875 -4.921875,4.453125 -13.375,4.453125 -3.953125,0 -7.890625,-0.875 -3.921875,-0.875 -8.015625,-2.734375 z"
                 id="DejaVuSans-35" />
              <path
                 d="m 31.78125,66.40625 q -7.609375,0 -11.453125,-7.5 Q 16.5,51.421875 16.5,36.375 q 0,-14.984375 3.828125,-22.484375 3.84375,-7.5 11.453125,-7.5 7.671875,0 11.5,7.5 3.84375,7.5 3.84375,22.484375 0,15.046875 -3.84375,22.53125 -3.828125,7.5 -11.5,7.5 m 0,7.8125 q 12.265625,0 18.734375,-9.703125 6.46875,-9.6875 6.46875,-28.140625 0,-18.40625 -6.46875,-28.109375 -6.46875,-9.6875 -18.734375,-9.6875 -12.25,0 -18.71875,9.6875 Q 6.59375,17.96875 6.59375,36.375 q 0,18.453125 6.46875,28.140625 6.46875,9.703125 18.71875,9.703125"
                 id="DejaVuSans-30" />
            </defs>
            <g
               transform="matrix(0.1,0,0,-0.1,95.486369,322.18244)"
               id="g1270">
              <use
                 xlink:href="#DejaVuSans-35"
                 id="use1266"
                 x="0"
                 y="0"
                 width="100%"
                 height="100%" />
              <use
                 x="63.623047"
                 xlink:href="#DejaVuSans-30"
                 id="use1268"
                 y="0"
                 width="100%"
                 height="100%" />
            </g>
          </g>
        </g>
        <g
           id="xtick_2">
          <g
             id="line2d_2">
            <g
               id="g1276">
              <use
                 style="stroke:#000000;stroke-width:0.8"
                 x="164.92075"
                 xlink:href="#me91f6ae035"
                 y="307.58401"
                 id="use1274"
                 width="100%"
                 height="100%" />
            </g>
          </g>
          <g
             id="text_2">
            <!-- 100 -->
            <defs
               id="defs1280">
              <path
                 d="m 12.40625,8.296875 h 16.109375 v 55.625 L 10.984375,60.40625 v 8.984375 l 17.4375,3.515625 H 38.28125 V 8.296875 H 54.390625 V 0 H 12.40625 Z"
                 id="DejaVuSans-31" />
            </defs>
            <g
               transform="matrix(0.1,0,0,-0.1,155.377,322.18244)"
               id="g1288">
              <use
                 xlink:href="#DejaVuSans-31"
                 id="use1282"
                 x="0"
                 y="0"
                 width="100%"
                 height="100%" />
              <use
                 x="63.623047"
                 xlink:href="#DejaVuSans-30"
                 id="use1284"
                 y="0"
                 width="100%"
                 height="100%" />
              <use
                 x="127.24609"
                 xlink:href="#DejaVuSans-30"
                 id="use1286"
                 y="0"
                 width="100%"
                 height="100%" />
            </g>
          </g>
        </g>
        <g
           id="xtick_3">
          <g
             id="line2d_3">
            <g
               id="g1294">
              <use
                 style="stroke:#000000;stroke-width:0.8"
                 x="227.99263"
                 xlink:href="#me91f6ae035"
                 y="307.58401"
                 id="use1292"
                 width="100%"
                 height="100%" />
            </g>
          </g>
          <g
             id="text_3">
            <!-- 150 -->
            <g
               transform="matrix(0.1,0,0,-0.1,218.44887,322.18244)"
               id="g1303">
              <use
                 xlink:href="#DejaVuSans-31"
                 id="use1297"
                 x="0"
                 y="0"
                 width="100%"
                 height="100%" />
              <use
                 x="63.623047"
                 xlink:href="#DejaVuSans-35"
                 id="use1299"
                 y="0"
                 width="100%"
                 height="100%" />
              <use
                 x="127.24609"
                 xlink:href="#DejaVuSans-30"
                 id="use1301"
                 y="0"
                 width="100%"
                 height="100%" />
            </g>
          </g>
        </g>
        <g
           id="xtick_4">
          <g
             id="line2d_4">
            <g
               id="g1309">
              <use
                 style="stroke:#000000;stroke-width:0.8"
                 x="291.06451"
                 xlink:href="#me91f6ae035"
                 y="307.58401"
                 id="use1307"
                 width="100%"
                 height="100%" />
            </g>
          </g>
          <g
             id="text_4">
            <!-- 200 -->
            <defs
               id="defs1313">
              <path
                 d="M 19.1875,8.296875 H 53.609375 V 0 H 7.328125 v 8.296875 q 5.609375,5.8125 15.296875,15.59375 9.703125,9.796875 12.1875,12.640625 4.734375,5.3125 6.609375,9 1.890625,3.6875 1.890625,7.25 0,5.8125 -4.078125,9.46875 -4.078125,3.671875 -10.625,3.671875 -4.640625,0 -9.796875,-1.609375 -5.140625,-1.609375 -11,-4.890625 v 9.96875 Q 13.765625,71.78125 18.9375,73 q 5.1875,1.21875 9.484375,1.21875 11.328125,0 18.0625,-5.671875 6.734375,-5.65625 6.734375,-15.125 0,-4.5 -1.6875,-8.53125 Q 49.859375,40.875 45.40625,35.40625 44.1875,33.984375 37.640625,27.21875 31.109375,20.453125 19.1875,8.296875"
                 id="DejaVuSans-32" />
            </defs>
            <g
               transform="matrix(0.1,0,0,-0.1,281.52075,322.18244)"
               id="g1321">
              <use
                 xlink:href="#DejaVuSans-32"
                 id="use1315"
                 x="0"
                 y="0"
                 width="100%"
                 height="100%" />
              <use
                 x="63.623047"
                 xlink:href="#DejaVuSans-30"
                 id="use1317"
                 y="0"
                 width="100%"
                 height="100%" />
              <use
                 x="127.24609"
                 xlink:href="#DejaVuSans-30"
                 id="use1319"
                 y="0"
                 width="100%"
                 height="100%" />
            </g>
          </g>
        </g>
        <g
           id="xtick_5">
          <g
             id="line2d_5">
            <g
               id="g1327">
              <use
                 style="stroke:#000000;stroke-width:0.8"
                 x="354.13638"
                 xlink:href="#me91f6ae035"
                 y="307.58401"
                 id="use1325"
                 width="100%"
                 height="100%" />
            </g>
          </g>
          <g
             id="text_5">
            <!-- 250 -->
            <g
               transform="matrix(0.1,0,0,-0.1,344.59263,322.18244)"
               id="g1336">
              <use
                 xlink:href="#DejaVuSans-32"
                 id="use1330"
                 x="0"
                 y="0"
                 width="100%"
                 height="100%" />
              <use
                 x="63.623047"
                 xlink:href="#DejaVuSans-35"
                 id="use1332"
                 y="0"
                 width="100%"
                 height="100%" />
              <use
                 x="127.24609"
                 xlink:href="#DejaVuSans-30"
                 id="use1334"
                 y="0"
                 width="100%"
                 height="100%" />
            </g>
          </g>
        </g>
        <g
           id="text_6">
          <!-- Temperature ($^{\circ}$C) -->
          <defs
             id="defs1353">
            <path
               d="M -0.296875,72.90625 H 61.375 v -8.3125 H 35.5 V 0 H 25.59375 V 64.59375 H -0.296875 Z"
               id="DejaVuSans-54" />
            <path
               d="m 56.203125,29.59375 v -4.390625 h -41.3125 q 0.59375,-9.28125 5.59375,-14.140625 5,-4.859375 13.9375,-4.859375 5.171875,0 10.03125,1.265625 4.859375,1.265625 9.65625,3.8125 v -8.5 q -4.84375,-2.046875 -9.921875,-3.125 -5.078125,-1.078125 -10.296875,-1.078125 -13.09375,0 -20.734375,7.609375 -7.640625,7.625 -7.640625,20.625 0,13.421875 7.25,21.296875 Q 20.015625,56 32.328125,56 q 11.03125,0 17.453125,-7.109375 6.421875,-7.09375 6.421875,-19.296875 m -8.984375,2.640625 q -0.09375,7.359375 -4.125,11.75 -4.03125,4.40625 -10.671875,4.40625 -7.515625,0 -12.03125,-4.25 -4.515625,-4.25 -5.203125,-11.96875 z"
               id="DejaVuSans-65" />
            <path
               d="M 52,44.1875 Q 55.375,50.25 60.0625,53.125 64.75,56 71.09375,56 q 8.546875,0 13.1875,-5.984375 4.640625,-5.96875 4.640625,-17 V 0 h -9.03125 v 32.71875 q 0,7.859375 -2.796875,11.65625 -2.78125,3.8125 -8.484375,3.8125 -6.984375,0 -11.046875,-4.640625 -4.046875,-4.625 -4.046875,-12.640625 V 0 h -9.03125 v 32.71875 q 0,7.90625 -2.78125,11.6875 -2.78125,3.78125 -8.59375,3.78125 -6.890625,0 -10.953125,-4.65625 -4.046875,-4.65625 -4.046875,-12.625 V 0 h -9.03125 v 54.6875 h 9.03125 v -8.5 q 3.078125,5.03125 7.375,7.421875 Q 29.78125,56 35.6875,56 41.65625,56 45.828125,52.96875 50,49.953125 52,44.1875"
               id="DejaVuSans-6d" />
            <path
               d="m 18.109375,8.203125 v -29 H 9.078125 V 54.6875 h 9.03125 v -8.296875 q 2.84375,4.875 7.15625,7.234375 Q 29.59375,56 35.59375,56 q 9.96875,0 16.1875,-7.90625 6.234375,-7.90625 6.234375,-20.796875 0,-12.890625 -6.234375,-20.8125 -6.21875,-7.90625 -16.1875,-7.90625 -6,0 -10.328125,2.375 -4.3125,2.375 -7.15625,7.25 M 48.6875,27.296875 q 0,9.90625 -4.078125,15.546875 -4.078125,5.640625 -11.203125,5.640625 -7.140625,0 -11.21875,-5.640625 -4.078125,-5.640625 -4.078125,-15.546875 0,-9.90625 4.078125,-15.546875 4.078125,-5.640625 11.21875,-5.640625 7.125,0 11.203125,5.640625 4.078125,5.640625 4.078125,15.546875"
               id="DejaVuSans-70" />
            <path
               d="m 41.109375,46.296875 q -1.515625,0.875 -3.296875,1.28125 Q 36.03125,48 33.890625,48 26.265625,48 22.1875,43.046875 18.109375,38.09375 18.109375,28.8125 V 0 h -9.03125 v 54.6875 h 9.03125 v -8.5 q 2.84375,4.984375 7.375,7.390625 Q 30.03125,56 36.53125,56 q 0.921875,0 2.046875,-0.125 1.125,-0.109375 2.484375,-0.359375 z"
               id="DejaVuSans-72" />
            <path
               d="m 34.28125,27.484375 q -10.890625,0 -15.09375,-2.484375 -4.203125,-2.484375 -4.203125,-8.5 0,-4.78125 3.15625,-7.59375 3.15625,-2.796875 8.5625,-2.796875 7.484375,0 12,5.296875 4.515625,5.296875 4.515625,14.078125 v 2 z m 17.921875,3.71875 V 0 H 43.21875 v 8.296875 q -3.078125,-4.96875 -7.671875,-7.34375 -4.59375,-2.375 -11.234375,-2.375 -8.390625,0 -13.359375,4.71875 Q 6,8.015625 6,15.921875 q 0,9.21875 6.171875,13.90625 6.1875,4.6875 18.4375,4.6875 H 43.21875 v 0.890625 q 0,6.203125 -4.078125,9.59375 -4.078125,3.390625 -11.453125,3.390625 -4.6875,0 -9.140625,-1.125 -4.4375,-1.125 -8.53125,-3.375 v 8.3125 q 4.921875,1.90625 9.5625,2.84375 Q 24.21875,56 28.609375,56 q 11.875,0 17.734375,-6.15625 5.859375,-6.140625 5.859375,-18.640625"
               id="DejaVuSans-61" />
            <path
               d="M 18.3125,70.21875 V 54.6875 h 18.5 v -6.984375 h -18.5 v -29.6875 q 0,-6.6875 1.828125,-8.59375 1.828125,-1.90625 7.453125,-1.90625 H 36.8125 V 0 H 27.59375 Q 17.1875,0 13.234375,3.875 9.28125,7.765625 9.28125,18.015625 v 29.6875 H 2.6875 V 54.6875 h 6.59375 v 15.53125 z"
               id="DejaVuSans-74" />
            <path
               d="M 8.5,21.578125 V 54.6875 h 8.984375 V 21.921875 q 0,-7.765625 3.015625,-11.65625 3.03125,-3.875 9.09375,-3.875 7.265625,0 11.484375,4.640625 4.234375,4.640625 4.234375,12.65625 v 31 h 8.984375 V 0 H 45.3125 V 8.40625 Q 42.046875,3.421875 37.71875,1 33.40625,-1.421875 27.6875,-1.421875 18.265625,-1.421875 13.375,4.4375 8.5,10.296875 8.5,21.578125 M 31.109375,56 Z"
               id="DejaVuSans-75" />
            <path
               id="DejaVuSans-20"
               d="" />
            <path
               d="M 31,75.875 Q 24.46875,64.65625 21.28125,53.65625 18.109375,42.671875 18.109375,31.390625 18.109375,20.125 21.3125,9.0625 24.515625,-2 31,-13.1875 H 23.1875 Q 15.875,-1.703125 12.234375,9.375 8.59375,20.453125 8.59375,31.390625 q 0,10.890625 3.609375,21.921875 3.625,11.046875 10.984375,22.5625 z"
               id="DejaVuSans-28" />
            <path
               d="m 31.25,40.921875 q -3.90625,0 -6.59375,-2.71875 -2.6875,-2.703125 -2.6875,-6.609375 0,-3.859375 2.6875,-6.515625 2.6875,-2.65625 6.59375,-2.65625 3.90625,0 6.59375,2.65625 2.6875,2.65625 2.6875,6.515625 0,3.859375 -2.71875,6.59375 -2.703125,2.734375 -6.5625,2.734375 m 0,6.296875 q 3.125,0 6,-1.203125 2.890625,-1.1875 4.984375,-3.4375 2.25,-2.1875 3.375,-4.984375 1.125,-2.78125 1.125,-6 0,-6.4375 -4.515625,-10.90625 -4.515625,-4.46875 -11.0625,-4.46875 -6.59375,0 -11,4.390625 Q 15.765625,25 15.765625,31.59375 q 0,6.546875 4.484375,11.078125 4.5,4.546875 11,4.546875"
               id="DejaVuSans-2218" />
            <path
               d="M 64.40625,67.28125 V 56.890625 q -4.984375,4.640625 -10.625,6.921875 -5.640625,2.296875 -11.984375,2.296875 -12.5,0 -19.140625,-7.640625 -6.640625,-7.640625 -6.640625,-22.09375 0,-14.40625 6.640625,-22.046875 Q 29.296875,6.6875 41.796875,6.6875 q 6.34375,0 11.984375,2.296875 5.640625,2.296875 10.625,6.9375 V 5.609375 Q 59.234375,2.09375 53.4375,0.328125 q -5.78125,-1.75 -12.21875,-1.75 -16.5625,0 -26.09375,10.125 Q 5.609375,18.84375 5.609375,36.375 q 0,17.578125 9.515625,27.703125 9.53125,10.140625 26.09375,10.140625 6.53125,0 12.3125,-1.734375 5.796875,-1.734375 10.875,-5.203125"
               id="DejaVuSans-43" />
            <path
               d="m 8.015625,75.875 h 7.8125 q 7.3125,-11.515625 10.953125,-22.5625 3.640625,-11.03125 3.640625,-21.921875 0,-10.9375 -3.640625,-22.015625 -3.640625,-11.078125 -10.953125,-22.5625 h -7.8125 Q 14.5,-2 17.703125,9.0625 20.90625,20.125 20.90625,31.390625 q 0,11.28125 -3.203125,22.265625 -3.203125,11 -9.6875,22.21875"
               id="DejaVuSans-29" />
          </defs>
          <g
             transform="matrix(0.1,0,0,-0.1,192.16,335.86212)"
             id="g1387">
            <use
               transform="translate(0,0.125)"
               xlink:href="#DejaVuSans-54"
               id="use1355"
               x="0"
               y="0"
               width="100%"
               height="100%" />
            <use
               transform="translate(61.083984,0.125)"
               xlink:href="#DejaVuSans-65"
               id="use1357"
               x="0"
               y="0"
               width="100%"
               height="100%" />
            <use
               transform="translate(122.60742,0.125)"
               xlink:href="#DejaVuSans-6d"
               id="use1359"
               x="0"
               y="0"
               width="100%"
               height="100%" />
            <use
               transform="translate(220.01953,0.125)"
               xlink:href="#DejaVuSans-70"
               id="use1361"
               x="0"
               y="0"
               width="100%"
               height="100%" />
            <use
               transform="translate(283.49609,0.125)"
               xlink:href="#DejaVuSans-65"
               id="use1363"
               x="0"
               y="0"
               width="100%"
               height="100%" />
            <use
               transform="translate(345.01953,0.125)"
               xlink:href="#DejaVuSans-72"
               id="use1365"
               x="0"
               y="0"
               width="100%"
               height="100%" />
            <use
               transform="translate(386.13281,0.125)"
               xlink:href="#DejaVuSans-61"
               id="use1367"
               x="0"
               y="0"
               width="100%"
               height="100%" />
            <use
               transform="translate(447.41211,0.125)"
               xlink:href="#DejaVuSans-74"
               id="use1369"
               x="0"
               y="0"
               width="100%"
               height="100%" />
            <use
               transform="translate(486.62109,0.125)"
               xlink:href="#DejaVuSans-75"
               id="use1371"
               x="0"
               y="0"
               width="100%"
               height="100%" />
            <use
               transform="translate(550,0.125)"
               xlink:href="#DejaVuSans-72"
               id="use1373"
               x="0"
               y="0"
               width="100%"
               height="100%" />
            <use
               transform="translate(591.11328,0.125)"
               xlink:href="#DejaVuSans-65"
               id="use1375"
               x="0"
               y="0"
               width="100%"
               height="100%" />
            <use
               transform="translate(652.63672,0.125)"
               xlink:href="#DejaVuSans-20"
               id="use1377"
               x="0"
               y="0"
               width="100%"
               height="100%" />
            <use
               transform="translate(684.42383,0.125)"
               xlink:href="#DejaVuSans-28"
               id="use1379"
               x="0"
               y="0"
               width="100%"
               height="100%" />
            <use
               transform="matrix(0.7,0,0,0.7,724.39453,38.40625)"
               xlink:href="#DejaVuSans-2218"
               id="use1381"
               x="0"
               y="0"
               width="100%"
               height="100%" />
            <use
               transform="translate(770.94727,0.125)"
               xlink:href="#DejaVuSans-43"
               id="use1383"
               x="0"
               y="0"
               width="100%"
               height="100%" />
            <use
               transform="translate(840.77148,0.125)"
               xlink:href="#DejaVuSans-29"
               id="use1385"
               x="0"
               y="0"
               width="100%"
               height="100%" />
          </g>
        </g>
      </g>
      <g
         id="matplotlib.axis_2">
        <g
           id="ytick_1">
          <g
             id="line2d_6">
            <defs
               id="defs1392">
              <path
                 d="M 0,0 H -3.5"
                 id="m6fc68e23a3"
                 style="stroke:#000000;stroke-width:0.8" />
            </defs>
            <g
               id="g1396">
              <use
                 style="stroke:#000000;stroke-width:0.8"
                 x="57.599998"
                 xlink:href="#m6fc68e23a3"
                 y="299.8638"
                 id="use1394"
                 width="100%"
                 height="100%" />
            </g>
          </g>
          <g
             id="text_7">
            <!-- −1000 -->
            <defs
               id="defs1400">
              <path
                 d="M 10.59375,35.5 H 73.1875 V 27.203125 H 10.59375 Z"
                 id="DejaVuSans-2212" />
            </defs>
            <g
               transform="matrix(0.1,0,0,-0.1,16.770313,303.66303)"
               id="g1412">
              <use
                 xlink:href="#DejaVuSans-2212"
                 id="use1402"
                 x="0"
                 y="0"
                 width="100%"
                 height="100%" />
              <use
                 x="83.789062"
                 xlink:href="#DejaVuSans-31"
                 id="use1404"
                 y="0"
                 width="100%"
                 height="100%" />
              <use
                 x="147.41211"
                 xlink:href="#DejaVuSans-30"
                 id="use1406"
                 y="0"
                 width="100%"
                 height="100%" />
              <use
                 x="211.03516"
                 xlink:href="#DejaVuSans-30"
                 id="use1408"
                 y="0"
                 width="100%"
                 height="100%" />
              <use
                 x="274.6582"
                 xlink:href="#DejaVuSans-30"
                 id="use1410"
                 y="0"
                 width="100%"
                 height="100%" />
            </g>
          </g>
        </g>
        <g
           id="ytick_2">
          <g
             id="line2d_7">
            <g
               id="g1418">
              <use
                 style="stroke:#000000;stroke-width:0.8"
                 x="57.599998"
                 xlink:href="#m6fc68e23a3"
                 y="249.85451"
                 id="use1416"
                 width="100%"
                 height="100%" />
            </g>
          </g>
          <g
             id="text_8">
            <!-- −800 -->
            <defs
               id="defs1422">
              <path
                 d="m 31.78125,34.625 q -7.03125,0 -11.0625,-3.765625 -4.015625,-3.765625 -4.015625,-10.34375 0,-6.59375 4.015625,-10.359375 4.03125,-3.765625 11.0625,-3.765625 7.03125,0 11.078125,3.78125 4.0625,3.796875 4.0625,10.34375 0,6.578125 -4.03125,10.34375 Q 38.875,34.625 31.78125,34.625 m -9.859375,4.1875 Q 15.578125,40.375 12.03125,44.71875 8.5,49.078125 8.5,55.328125 q 0,8.734375 6.21875,13.8125 6.234375,5.078125 17.0625,5.078125 10.890625,0 17.09375,-5.078125 6.203125,-5.078125 6.203125,-13.8125 0,-6.25 -3.546875,-10.609375 Q 48,40.375 41.703125,38.8125 q 7.125,-1.65625 11.09375,-6.5 3.984375,-4.828125 3.984375,-11.796875 0,-10.609375 -6.46875,-16.28125 -6.46875,-5.65625 -18.53125,-5.65625 -12.046875,0 -18.53125,5.65625 -6.46875,5.671875 -6.46875,16.28125 0,6.96875 4,11.796875 4.015625,4.84375 11.140625,6.5 M 18.3125,54.390625 q 0,-5.65625 3.53125,-8.828125 3.546875,-3.171875 9.9375,-3.171875 6.359375,0 9.9375,3.171875 3.59375,3.171875 3.59375,8.828125 0,5.671875 -3.59375,8.84375 -3.578125,3.171875 -9.9375,3.171875 -6.390625,0 -9.9375,-3.171875 Q 18.3125,60.0625 18.3125,54.390625"
                 id="DejaVuSans-38" />
            </defs>
            <g
               transform="matrix(0.1,0,0,-0.1,23.132812,253.65373)"
               id="g1432">
              <use
                 xlink:href="#DejaVuSans-2212"
                 id="use1424"
                 x="0"
                 y="0"
                 width="100%"
                 height="100%" />
              <use
                 x="83.789062"
                 xlink:href="#DejaVuSans-38"
                 id="use1426"
                 y="0"
                 width="100%"
                 height="100%" />
              <use
                 x="147.41211"
                 xlink:href="#DejaVuSans-30"
                 id="use1428"
                 y="0"
                 width="100%"
                 height="100%" />
              <use
                 x="211.03516"
                 xlink:href="#DejaVuSans-30"
                 id="use1430"
                 y="0"
                 width="100%"
                 height="100%" />
            </g>
          </g>
        </g>
        <g
           id="ytick_3">
          <g
             id="line2d_8">
            <g
               id="g1438">
              <use
                 style="stroke:#000000;stroke-width:0.8"
                 x="57.599998"
                 xlink:href="#m6fc68e23a3"
                 y="199.84521"
                 id="use1436"
                 width="100%"
                 height="100%" />
            </g>
          </g>
          <g
             id="text_9">
            <!-- −600 -->
            <defs
               id="defs1442">
              <path
                 d="m 33.015625,40.375 q -6.640625,0 -10.53125,-4.546875 -3.875,-4.53125 -3.875,-12.4375 0,-7.859375 3.875,-12.4375 3.890625,-4.5625 10.53125,-4.5625 6.640625,0 10.515625,4.5625 3.875,4.578125 3.875,12.4375 0,7.90625 -3.875,12.4375 Q 39.65625,40.375 33.015625,40.375 M 52.59375,71.296875 V 62.3125 q -3.71875,1.75 -7.5,2.671875 -3.78125,0.9375 -7.5,0.9375 -9.765625,0 -14.921875,-6.59375 -5.140625,-6.59375 -5.875,-19.921875 2.875,4.25 7.21875,6.515625 4.359375,2.265625 9.578125,2.265625 10.984375,0 17.359375,-6.671875 6.375,-6.65625 6.375,-18.125 0,-11.234375 -6.640625,-18.03125 -6.640625,-6.78125 -17.671875,-6.78125 -12.65625,0 -19.34375,9.6875 -6.6875,9.703125 -6.6875,28.109375 0,17.28125 8.203125,27.5625 8.203125,10.28125 22.015625,10.28125 3.71875,0 7.5,-0.734375 3.78125,-0.734375 7.890625,-2.1875"
                 id="DejaVuSans-36" />
            </defs>
            <g
               transform="matrix(0.1,0,0,-0.1,23.132812,203.64443)"
               id="g1452">
              <use
                 xlink:href="#DejaVuSans-2212"
                 id="use1444"
                 x="0"
                 y="0"
                 width="100%"
                 height="100%" />
              <use
                 x="83.789062"
                 xlink:href="#DejaVuSans-36"
                 id="use1446"
                 y="0"
                 width="100%"
                 height="100%" />
              <use
                 x="147.41211"
                 xlink:href="#DejaVuSans-30"
                 id="use1448"
                 y="0"
                 width="100%"
                 height="100%" />
              <use
                 x="211.03516"
                 xlink:href="#DejaVuSans-30"
                 id="use1450"
                 y="0"
                 width="100%"
                 height="100%" />
            </g>
          </g>
        </g>
        <g
           id="ytick_4">
          <g
             id="line2d_9">
            <g
               id="g1458">
              <use
                 style="stroke:#000000;stroke-width:0.8"
                 x="57.599998"
                 xlink:href="#m6fc68e23a3"
                 y="149.83591"
                 id="use1456"
                 width="100%"
                 height="100%" />
            </g>
          </g>
          <g
             id="text_10">
            <!-- −400 -->
            <defs
               id="defs1462">
              <path
                 d="M 37.796875,64.3125 12.890625,25.390625 h 24.90625 z m -2.59375,8.59375 h 12.40625 V 25.390625 h 10.40625 V 17.1875 H 47.609375 V 0 h -9.8125 V 17.1875 H 4.890625 v 9.515625 z"
                 id="DejaVuSans-34" />
            </defs>
            <g
               transform="matrix(0.1,0,0,-0.1,23.132812,153.63513)"
               id="g1472">
              <use
                 xlink:href="#DejaVuSans-2212"
                 id="use1464"
                 x="0"
                 y="0"
                 width="100%"
                 height="100%" />
              <use
                 x="83.789062"
                 xlink:href="#DejaVuSans-34"
                 id="use1466"
                 y="0"
                 width="100%"
                 height="100%" />
              <use
                 x="147.41211"
                 xlink:href="#DejaVuSans-30"
                 id="use1468"
                 y="0"
                 width="100%"
                 height="100%" />
              <use
                 x="211.03516"
                 xlink:href="#DejaVuSans-30"
                 id="use1470"
                 y="0"
                 width="100%"
                 height="100%" />
            </g>
          </g>
        </g>
        <g
           id="ytick_5">
          <g
             id="line2d_10">
            <g
               id="g1478">
              <use
                 style="stroke:#000000;stroke-width:0.8"
                 x="57.599998"
                 xlink:href="#m6fc68e23a3"
                 y="99.826607"
                 id="use1476"
                 width="100%"
                 height="100%" />
            </g>
          </g>
          <g
             id="text_11">
            <!-- −200 -->
            <g
               transform="matrix(0.1,0,0,-0.1,23.132812,103.62582)"
               id="g1489">
              <use
                 xlink:href="#DejaVuSans-2212"
                 id="use1481"
                 x="0"
                 y="0"
                 width="100%"
                 height="100%" />
              <use
                 x="83.789062"
                 xlink:href="#DejaVuSans-32"
                 id="use1483"
                 y="0"
                 width="100%"
                 height="100%" />
              <use
                 x="147.41211"
                 xlink:href="#DejaVuSans-30"
                 id="use1485"
                 y="0"
                 width="100%"
                 height="100%" />
              <use
                 x="211.03516"
                 xlink:href="#DejaVuSans-30"
                 id="use1487"
                 y="0"
                 width="100%"
                 height="100%" />
            </g>
          </g>
        </g>
        <g
           id="ytick_6">
          <g
             id="line2d_11">
            <g
               id="g1495">
              <use
                 style="stroke:#000000;stroke-width:0.8"
                 x="57.599998"
                 xlink:href="#m6fc68e23a3"
                 y="49.817303"
                 id="use1493"
                 width="100%"
                 height="100%" />
            </g>
          </g>
          <g
             id="text_12">
            <!-- 0 -->
            <g
               transform="matrix(0.1,0,0,-0.1,44.2375,53.616521)"
               id="g1500">
              <use
                 xlink:href="#DejaVuSans-30"
                 id="use1498"
                 x="0"
                 y="0"
                 width="100%"
                 height="100%" />
            </g>
          </g>
        </g>
        <g
           id="text_13">
          <!-- elevation (m) -->
          <defs
             id="defs1509">
            <path
               d="M 9.421875,75.984375 H 18.40625 V 0 H 9.421875 Z"
               id="DejaVuSans-6c" />
            <path
               d="M 2.984375,54.6875 H 12.5 L 29.59375,8.796875 46.6875,54.6875 h 9.515625 L 35.6875,0 H 23.484375 Z"
               id="DejaVuSans-76" />
            <path
               d="M 9.421875,54.6875 H 18.40625 V 0 H 9.421875 Z m 0,21.296875 H 18.40625 V 64.59375 H 9.421875 Z"
               id="DejaVuSans-69" />
            <path
               d="m 30.609375,48.390625 q -7.21875,0 -11.421875,-5.640625 -4.203125,-5.640625 -4.203125,-15.453125 0,-9.8125 4.171875,-15.453125 4.1875,-5.640625 11.453125,-5.640625 7.1875,0 11.375,5.65625 4.203125,5.671875 4.203125,15.4375 0,9.71875 -4.203125,15.40625 -4.1875,5.6875 -11.375,5.6875 m 0,7.609375 q 11.71875,0 18.40625,-7.625 6.703125,-7.609375 6.703125,-21.078125 0,-13.421875 -6.703125,-21.078125 -6.6875,-7.640625 -18.40625,-7.640625 -11.765625,0 -18.4375,7.640625 -6.65625,7.65625 -6.65625,21.078125 0,13.46875 6.65625,21.078125 Q 18.84375,56 30.609375,56"
               id="DejaVuSans-6f" />
            <path
               d="M 54.890625,33.015625 V 0 H 45.90625 v 32.71875 q 0,7.765625 -3.03125,11.609375 -3.03125,3.859375 -9.078125,3.859375 -7.28125,0 -11.484375,-4.640625 -4.203125,-4.625 -4.203125,-12.640625 V 0 h -9.03125 v 54.6875 h 9.03125 v -8.5 q 3.234375,4.9375 7.59375,7.375 4.375,2.4375 10.09375,2.4375 9.421875,0 14.25,-5.828125 4.84375,-5.828125 4.84375,-17.15625"
               id="DejaVuSans-6e" />
          </defs>
          <g
             transform="matrix(0,-0.1,-0.1,0,10.690625,208.03191)"
             id="g1537">
            <use
               xlink:href="#DejaVuSans-65"
               id="use1511"
               x="0"
               y="0"
               width="100%"
               height="100%" />
            <use
               x="61.523438"
               xlink:href="#DejaVuSans-6c"
               id="use1513"
               y="0"
               width="100%"
               height="100%" />
            <use
               x="89.306641"
               xlink:href="#DejaVuSans-65"
               id="use1515"
               y="0"
               width="100%"
               height="100%" />
            <use
               x="150.83008"
               xlink:href="#DejaVuSans-76"
               id="use1517"
               y="0"
               width="100%"
               height="100%" />
            <use
               x="210.00977"
               xlink:href="#DejaVuSans-61"
               id="use1519"
               y="0"
               width="100%"
               height="100%" />
            <use
               x="271.28906"
               xlink:href="#DejaVuSans-74"
               id="use1521"
               y="0"
               width="100%"
               height="100%" />
            <use
               x="310.49805"
               xlink:href="#DejaVuSans-69"
               id="use1523"
               y="0"
               width="100%"
               height="100%" />
            <use
               x="338.28125"
               xlink:href="#DejaVuSans-6f"
               id="use1525"
               y="0"
               width="100%"
               height="100%" />
            <use
               x="399.46289"
               xlink:href="#DejaVuSans-6e"
               id="use1527"
               y="0"
               width="100%"
               height="100%" />
            <use
               x="462.8418"
               xlink:href="#DejaVuSans-20"
               id="use1529"
               y="0"
               width="100%"
               height="100%" />
            <use
               x="494.62891"
               xlink:href="#DejaVuSans-28"
               id="use1531"
               y="0"
               width="100%"
               height="100%" />
            <use
               x="533.64258"
               xlink:href="#DejaVuSans-6d"
               id="use1533"
               y="0"
               width="100%"
               height="100%" />
            <use
               x="631.05469"
               xlink:href="#DejaVuSans-29"
               id="use1535"
               y="0"
               width="100%"
               height="100%" />
          </g>
        </g>
      </g>
      <g
         id="line2d_12">
        <path
           clip-path="url(#pa5415dec31)"
           d="m 73.832727,53.568 39.890213,7.501395 35.43702,7.501396 31.4582,7.501395 27.8944,7.501395 24.69699,7.501396 21.8244,7.501395 19.23843,7.501398 16.90105,7.50139 14.77149,7.5014 13.70436,8.12651 12.24759,8.75163 9.82981,8.75163 7.64235,8.75162 5.98448,8.75163 4.93032,8.75163 4.29194,8.75163 3.87482,8.75162 3.56695,8.75163 3.31491,8.75163 3.0941,8.75163 2.89296,8.75163 2.7057,8.75162 2.52926,8.75163 2.36197,8.75163 2.20285,8.75163 2.05132,8.75163 1.90707,8.75162 1.7699,8.75163 1.63969,8.75163"
           style="fill:none;stroke:#1f77b4;stroke-width:1.5;stroke-linecap:square"
           id="path1541" />
        <defs
           id="defs1544">
          <path
             d="M 0,1.5 C 0.397805,1.5 0.77937,1.341951 1.06066,1.06066 1.341951,0.77937 1.5,0.397805 1.5,0 1.5,-0.397805 1.341951,-0.77937 1.06066,-1.06066 0.77937,-1.341951 0.397805,-1.5 0,-1.5 c -0.397805,0 -0.77937,0.158049 -1.06066,0.43934 C -1.341951,-0.77937 -1.5,-0.397805 -1.5,0 c 0,0.397805 0.158049,0.77937 0.43934,1.06066 C -0.77937,1.341951 -0.397805,1.5 0,1.5 Z"
             id="mb64a33f7ab"
             style="stroke:#1f77b4" />
        </defs>
        <g
           clip-path="url(#pa5415dec31)"
           id="g1606">
          <use
             style="fill:#1f77b4;stroke:#1f77b4"
             x="73.832726"
             xlink:href="#mb64a33f7ab"
             y="53.568001"
             id="use1546"
             width="100%"
             height="100%" />
          <use
             style="fill:#1f77b4;stroke:#1f77b4"
             x="113.72295"
             xlink:href="#mb64a33f7ab"
             y="61.069393"
             id="use1548"
             width="100%"
             height="100%" />
          <use
             style="fill:#1f77b4;stroke:#1f77b4"
             x="149.15996"
             xlink:href="#mb64a33f7ab"
             y="68.570793"
             id="use1550"
             width="100%"
             height="100%" />
          <use
             style="fill:#1f77b4;stroke:#1f77b4"
             x="180.61816"
             xlink:href="#mb64a33f7ab"
             y="76.072189"
             id="use1552"
             width="100%"
             height="100%" />
          <use
             style="fill:#1f77b4;stroke:#1f77b4"
             x="208.51256"
             xlink:href="#mb64a33f7ab"
             y="83.573578"
             id="use1554"
             width="100%"
             height="100%" />
          <use
             style="fill:#1f77b4;stroke:#1f77b4"
             x="233.20955"
             xlink:href="#mb64a33f7ab"
             y="91.074974"
             id="use1556"
             width="100%"
             height="100%" />
          <use
             style="fill:#1f77b4;stroke:#1f77b4"
             x="255.03395"
             xlink:href="#mb64a33f7ab"
             y="98.57637"
             id="use1558"
             width="100%"
             height="100%" />
          <use
             style="fill:#1f77b4;stroke:#1f77b4"
             x="274.27237"
             xlink:href="#mb64a33f7ab"
             y="106.07777"
             id="use1560"
             width="100%"
             height="100%" />
          <use
             style="fill:#1f77b4;stroke:#1f77b4"
             x="291.17343"
             xlink:href="#mb64a33f7ab"
             y="113.57916"
             id="use1562"
             width="100%"
             height="100%" />
          <use
             style="fill:#1f77b4;stroke:#1f77b4"
             x="305.94492"
             xlink:href="#mb64a33f7ab"
             y="121.08056"
             id="use1564"
             width="100%"
             height="100%" />
          <use
             style="fill:#1f77b4;stroke:#1f77b4"
             x="319.64929"
             xlink:href="#mb64a33f7ab"
             y="129.20708"
             id="use1566"
             width="100%"
             height="100%" />
          <use
             style="fill:#1f77b4;stroke:#1f77b4"
             x="331.89688"
             xlink:href="#mb64a33f7ab"
             y="137.95869"
             id="use1568"
             width="100%"
             height="100%" />
          <use
             style="fill:#1f77b4;stroke:#1f77b4"
             x="341.72668"
             xlink:href="#mb64a33f7ab"
             y="146.71033"
             id="use1570"
             width="100%"
             height="100%" />
          <use
             style="fill:#1f77b4;stroke:#1f77b4"
             x="349.36902"
             xlink:href="#mb64a33f7ab"
             y="155.46196"
             id="use1572"
             width="100%"
             height="100%" />
          <use
             style="fill:#1f77b4;stroke:#1f77b4"
             x="355.35352"
             xlink:href="#mb64a33f7ab"
             y="164.21358"
             id="use1574"
             width="100%"
             height="100%" />
          <use
             style="fill:#1f77b4;stroke:#1f77b4"
             x="360.28384"
             xlink:href="#mb64a33f7ab"
             y="172.96521"
             id="use1576"
             width="100%"
             height="100%" />
          <use
             style="fill:#1f77b4;stroke:#1f77b4"
             x="364.57578"
             xlink:href="#mb64a33f7ab"
             y="181.71684"
             id="use1578"
             width="100%"
             height="100%" />
          <use
             style="fill:#1f77b4;stroke:#1f77b4"
             x="368.45059"
             xlink:href="#mb64a33f7ab"
             y="190.46846"
             id="use1580"
             width="100%"
             height="100%" />
          <use
             style="fill:#1f77b4;stroke:#1f77b4"
             x="372.01755"
             xlink:href="#mb64a33f7ab"
             y="199.22009"
             id="use1582"
             width="100%"
             height="100%" />
          <use
             style="fill:#1f77b4;stroke:#1f77b4"
             x="375.33246"
             xlink:href="#mb64a33f7ab"
             y="207.97173"
             id="use1584"
             width="100%"
             height="100%" />
          <use
             style="fill:#1f77b4;stroke:#1f77b4"
             x="378.42654"
             xlink:href="#mb64a33f7ab"
             y="216.72334"
             id="use1586"
             width="100%"
             height="100%" />
          <use
             style="fill:#1f77b4;stroke:#1f77b4"
             x="381.31952"
             xlink:href="#mb64a33f7ab"
             y="225.47498"
             id="use1588"
             width="100%"
             height="100%" />
          <use
             style="fill:#1f77b4;stroke:#1f77b4"
             x="384.02521"
             xlink:href="#mb64a33f7ab"
             y="234.22661"
             id="use1590"
             width="100%"
             height="100%" />
          <use
             style="fill:#1f77b4;stroke:#1f77b4"
             x="386.55447"
             xlink:href="#mb64a33f7ab"
             y="242.97823"
             id="use1592"
             width="100%"
             height="100%" />
          <use
             style="fill:#1f77b4;stroke:#1f77b4"
             x="388.91644"
             xlink:href="#mb64a33f7ab"
             y="251.72986"
             id="use1594"
             width="100%"
             height="100%" />
          <use
             style="fill:#1f77b4;stroke:#1f77b4"
             x="391.11929"
             xlink:href="#mb64a33f7ab"
             y="260.48148"
             id="use1596"
             width="100%"
             height="100%" />
          <use
             style="fill:#1f77b4;stroke:#1f77b4"
             x="393.17059"
             xlink:href="#mb64a33f7ab"
             y="269.23312"
             id="use1598"
             width="100%"
             height="100%" />
          <use
             style="fill:#1f77b4;stroke:#1f77b4"
             x="395.07767"
             xlink:href="#mb64a33f7ab"
             y="277.98474"
             id="use1600"
             width="100%"
             height="100%" />
          <use
             style="fill:#1f77b4;stroke:#1f77b4"
             x="396.8476"
             xlink:href="#mb64a33f7ab"
             y="286.73636"
             id="use1602"
             width="100%"
             height="100%" />
          <use
             style="fill:#1f77b4;stroke:#1f77b4"
             x="398.48727"
             xlink:href="#mb64a33f7ab"
             y="295.48801"
             id="use1604"
             width="100%"
             height="100%" />
        </g>
      </g>
      <g
         id="patch_3">
        <path
           d="M 57.6,307.584 V 41.472"
           style="fill:none;stroke:#000000;stroke-width:0.8;stroke-linecap:square;stroke-linejoin:miter"
           id="path1609" />
      </g>
      <g
         id="patch_4">
        <path
           d="M 414.72,307.584 V 41.472"
           style="fill:none;stroke:#000000;stroke-width:0.8;stroke-linecap:square;stroke-linejoin:miter"
           id="path1612" />
      </g>
      <g
         id="patch_5">
        <path
           d="M 57.6,307.584 H 414.72"
           style="fill:none;stroke:#000000;stroke-width:0.8;stroke-linecap:square;stroke-linejoin:miter"
           id="path1615" />
      </g>
      <g
         id="patch_6">
        <path
           d="M 57.6,41.472 H 414.72"
           style="fill:none;stroke:#000000;stroke-width:0.8;stroke-linecap:square;stroke-linejoin:miter"
           id="path1618" />
      </g>
    </g>
  </g>
  <defs
     id="defs1626">
    <clipPath
       id="pa5415dec31">
      <rect
         height="266.112"
         width="357.12"
         x="57.599998"
         y="41.472"
         id="rect1623" />
    </clipPath>
  </defs>
</svg>
